<?xml version="1.0" encoding="utf-8"?>
<!-- Generator: Adobe Illustrator 16.0.0, SVG Export Plug-In . SVG Version: 6.00 Build 0)  -->
<!DOCTYPE svg PUBLIC "-//W3C//DTD SVG 1.1//EN" "http://www.w3.org/Graphics/SVG/1.1/DTD/svg11.dtd">
<svg version="1.1" id="Layer_1" xmlns="http://www.w3.org/2000/svg" xmlns:xlink="http://www.w3.org/1999/xlink" x="0px" y="0px"
	 width="949.411px" height="321.176px" viewBox="0 0 949.411 321.176" enable-background="new 0 0 949.411 321.176"
	 xml:space="preserve">
<g>
	<path fill="#65676A" d="M134.281,291.164l-1.053-0.39c-0.488-0.146-0.941-0.314-1.388-0.51c-1.729-0.78-4.017-1.876-6.974-3.291
		c-2.999-1.479-7.978-4.233-14.791-8.188c-6.953-4.017-13.662-8.326-19.952-12.782c-6.443-4.554-13.487-10.279-20.969-17.051
		c-7.595-6.875-14.254-14.072-19.784-21.401c-5.635-7.455-10.418-16.081-14.198-25.628c-3.877-9.742-5.83-19.749-5.83-29.756V48.547
		c0-4.457,1.695-8.501,4.902-11.716c3.208-3.208,7.267-4.902,11.709-4.902h185.434c4.435,0,8.487,1.695,11.695,4.902
		c3.215,3.222,4.902,7.273,4.902,11.716v123.621c0,9.972-1.938,19.993-5.83,29.756c-3.78,9.547-8.557,18.188-14.184,25.628
		c-5.53,7.322-12.197,14.512-19.805,21.401c-7.497,6.786-14.54,12.518-20.956,17.051c-6.318,4.477-13.034,8.772-19.951,12.775
		c-6.918,4.017-11.757,6.681-14.77,8.181c-2.796,1.373-5.146,2.476-7.016,3.305c-0.418,0.182-0.857,0.363-1.318,0.488l-1.06,0.397
		l-1.179,0.014H134.281z"/>
	<path fill="#1A3A66" d="M135.417,103.157V38.233H45.954c-2.796,0-5.209,1.032-7.252,3.062c-2.043,2.057-3.055,4.463-3.055,7.252
		v54.61H135.417z"/>
	<path fill="#015A36" d="M35.646,109.657v62.511c0,9.219,1.799,18.375,5.397,27.44c3.591,9.059,8.047,17.113,13.362,24.143
		c5.307,7.029,11.625,13.878,18.982,20.53c7.35,6.639,14.135,12.176,20.376,16.576c6.214,4.387,12.713,8.55,19.478,12.469
		c6.736,3.912,11.555,6.563,14.407,7.978c2.831,1.381,5.111,2.462,6.827,3.222c0.3,0.146,0.635,0.21,0.941,0.328V109.657H35.646z"/>
	<path fill="#911E2D" d="M241.681,103.157v-54.61c0-2.79-1.011-5.195-3.054-7.252c-2.043-2.029-4.457-3.062-7.239-3.062h-89.471
		v64.924H241.681z"/>
	<path fill="#1A3A66" d="M141.917,109.657v175.197c0.307-0.118,0.635-0.182,0.928-0.328c1.715-0.76,3.996-1.834,6.848-3.222
		c2.852-1.415,7.643-4.065,14.407-7.978c6.764-3.919,13.25-8.082,19.47-12.469c6.234-4.4,13.013-9.938,20.37-16.576
		c7.343-6.652,13.675-13.508,18.989-20.53c5.314-7.029,9.777-15.084,13.368-24.143c3.584-9.065,5.384-18.222,5.384-27.44v-62.511
		H141.917z"/>
	<path fill="#E2B623" d="M229.742,101.414v0.014h-86.103V50.193h0.014c0-8.089,4.902-11.946,4.902-11.946h-19.798
		c0,0,4.916,3.856,4.916,11.946h0.014v51.235H47.592v-0.014c-8.096,0-11.96-4.91-11.96-4.91v19.805c0,0,3.864-4.917,11.96-4.917
		v-0.021h86.096v161.521h-0.007h-0.007c0,4.854-0.663,8.181-2.573,10.07c1.291,0.606,2.427,1.137,3.375,1.562
		c0.3,0.146,0.613,0.21,0.914,0.328h0.014h0.014h6.499h0.028c0.3-0.118,0.606-0.182,0.899-0.328
		c0.962-0.425,2.099-0.955,3.396-1.562c-1.924-1.876-2.587-5.217-2.587-10.07h-0.014V111.372h86.103v0.021
		c8.089,0,11.939,4.917,11.939,4.917V96.504C241.681,96.504,237.831,101.414,229.742,101.414"/>
	<path fill="#FAE892" d="M85.549,90.64h-0.014c-1.569,0-2.838-1.025-3.78-1.785c-0.321-0.244-0.648-0.53-0.865-0.628
		c-5.488-2.929-16.632-1.408-16.736-1.395c-0.363,0.049-0.719-0.056-0.983-0.293c-0.279-0.237-0.433-0.585-0.433-0.941V56.964
		c0-0.376,0.182-0.739,0.475-0.976c0.307-0.237,0.697-0.314,1.066-0.23c1.75,0.425,4.819,1.123,5.635,1.172
		c0.697,0.035,1.221,0.634,1.172,1.325c-0.042,0.697-0.628,1.207-1.311,1.165c-0.858-0.049-3.034-0.516-4.54-0.865v25.642
		c3.368-0.328,11.841-0.83,16.834,1.82c0.418,0.223,0.83,0.537,1.262,0.9c0.69,0.544,1.521,1.22,2.218,1.22
		c0.663,0,1.548-0.711,2.26-1.297c0.446-0.362,0.864-0.711,1.304-0.941c4.979-2.636,13.354-2.085,16.716-1.715V58.338l-4.4,1.046
		c-0.669,0.16-1.353-0.244-1.506-0.92c-0.16-0.663,0.244-1.346,0.927-1.506l5.942-1.416c0.363-0.098,0.76-0.007,1.053,0.23
		c0.307,0.244,0.474,0.593,0.474,0.969v28.856c0,0.37-0.153,0.711-0.432,0.956c-0.272,0.23-0.642,0.334-0.997,0.286
		c-0.119-0.021-11.123-1.632-16.611,1.27c-0.202,0.118-0.551,0.397-0.893,0.683C88.422,89.559,87.098,90.64,85.549,90.64"/>
	<path fill="#FAE892" d="M84.748,84.538l-0.391-0.224c-3.989-2.273-10.174-2.636-13.508-2.636h-1.423V54.287
		c0-2.134,1.221-3.41,3.271-3.41c3.626,0,10.656,4.561,12.79,6.311c2.189-1.736,9.519-5.983,12.992-5.983
		c1.966,0,3.173,1.179,3.173,3.083v27.392h-1.43c-3.368,0-9.603,0.362-13.605,2.699l-0.383,0.23l-0.684,0.404L84.748,84.538z
		 M87.223,59.015l0.014,0.635v21.632c3.71-1.555,8.257-2.009,11.904-2.078V54.287c0-0.439,0-0.579-0.663-0.579
		C95.598,53.708,89.113,57.71,87.223,59.015 M71.909,79.203c3.619,0.069,8.138,0.516,11.834,2.036V58.987
		c-1.841-1.374-8.173-5.614-11.046-5.614c-0.537,0-0.788,0.035-0.788,0.914V79.203z"/>
	<path fill="#FAE892" d="M200.139,145.961c0.265,1.583,2.706,7.671-2.894,5.551c-5.607-2.134-5.418-16.632-3.013-20.586
		c-3.591,1.297-6.088,10.502-6.088,10.502l-0.007,0.07c-0.049-0.161-0.091-0.314-0.167-0.475c-0.258-0.62-0.572-1.171-0.935-1.604
		c-0.334-0.433-0.732-0.76-1.067-0.949c-0.342-0.202-0.663-0.279-0.858-0.292c-0.104-0.028-0.188,0-0.23,0h-0.077
		c0,0,0.021,0.014,0.063,0.049c0.035,0.014,0.126,0.042,0.175,0.104c0.188,0.104,0.369,0.3,0.551,0.564
		c0.376,0.544,0.69,1.465,0.795,2.566c0.063,0.544,0.063,1.158,0,1.778c-0.042,0.621-0.14,1.276-0.314,1.932
		c-0.167,0.669-0.404,1.325-0.697,1.96c-0.139,0.328-0.307,0.648-0.481,0.955l-0.251,0.453l-0.182,0.279
		c0.021-0.146,0.042-0.307,0.084-0.439c0.104-0.711,0.174-1.402,0.139-2.05s-0.16-1.255-0.355-1.744
		c-0.195-0.488-0.454-0.893-0.711-1.164c-0.258-0.272-0.481-0.433-0.635-0.551c-0.16-0.104-0.251-0.139-0.251-0.139
		s0.049,0.069,0.125,0.258c0.084,0.16,0.174,0.404,0.258,0.711c0.083,0.307,0.132,0.69,0.132,1.102
		c-0.007,0.425-0.049,0.893-0.209,1.395c-0.258,1.004-0.774,2.162-1.367,3.396c-0.3,0.642-0.628,1.29-0.949,1.966
		c-0.328,0.69-0.648,1.381-0.976,2.113c-0.146,0.3-0.335,0.816-0.439,1.269c-0.111,0.454-0.182,0.928-0.195,1.395
		c-0.021,0.474,0,0.913,0.084,1.359c0.048,0.454,0.174,0.879,0.313,1.27c0.544,1.611,1.555,2.831,2.601,3.612
		c0.523,0.391,1.053,0.677,1.555,0.851c0.481,0.188,0.935,0.251,1.304,0.266c0.363,0.027,0.669-0.035,0.851-0.07
		c0.167-0.056,0.265-0.091,0.265-0.091s-0.084-0.014-0.272-0.069c-0.083-0.021-0.188-0.07-0.307-0.111
		c-0.125-0.07-0.251-0.133-0.397-0.203c-0.551-0.307-1.248-0.871-1.862-1.729c-0.6-0.83-1.129-1.939-1.332-3.111
		c-0.104-0.585-0.146-1.199-0.07-1.785c0.021-0.286,0.105-0.572,0.167-0.844c0.049-0.146,0.077-0.293,0.14-0.418
		c0.035-0.119,0.104-0.251,0.174-0.418c0,0.132-0.021,0.279,0,0.425c0.049,0.426,0.049,0.851,0.181,1.255
		c0.161,0.809,0.53,1.534,0.941,2.12c0.216,0.265,0.425,0.544,0.677,0.746c0.097,0.104,0.216,0.23,0.334,0.321
		c0.119,0.077,0.244,0.174,0.349,0.244c0.23,0.16,0.446,0.272,0.648,0.383c0.216,0.098,0.419,0.182,0.614,0.237
		c0.37,0.146,0.642,0.16,0.851,0.195c0.181,0.035,0.286,0.063,0.286,0.063s-0.083-0.077-0.237-0.188
		c-0.063-0.07-0.175-0.153-0.272-0.23c-0.125-0.098-0.223-0.209-0.356-0.328c-0.125-0.111-0.258-0.251-0.391-0.397
		c-0.132-0.188-0.279-0.328-0.397-0.523c-0.063-0.084-0.118-0.188-0.195-0.286c-0.056-0.111-0.111-0.223-0.174-0.313
		c-0.119-0.223-0.216-0.481-0.307-0.697c-0.153-0.502-0.279-1.053-0.279-1.639c-0.014-0.3,0.042-0.6,0.049-0.899
		c0.035-0.153,0.069-0.307,0.098-0.46l0.091-0.46c0.056-0.153,0.097-0.321,0.153-0.488c0.049-0.16,0.118-0.321,0.167-0.474
		c0.098-0.328,0.279-0.635,0.418-0.956c0.146-0.321,0.356-0.621,0.509-0.969c0,0,0.049-0.049,0.049-0.077
		c-0.202,1.959,0.111,5.251,4.212,6.646c-4.379-8.417-0.355-14.784-0.355-14.784s1.171,14.205,11.248,12.085
		c0.781,6.081-6.248,8.5-6.248,8.5s9.316-0.125,9.505-7.44C204.498,150.801,201.903,147.726,200.139,145.961"/>
	<polygon fill="#FAE892" points="186.073,195.822 196.743,195.822 201.715,165.745 180.348,165.745 	"/>
	<path fill="#FAE892" d="M110.327,168.625l-7.734,7.413l2.343,0.669c-3.389,5.537-9.456,7.971-16.374,8.452v-28.068h6.43
		c0.53,0.558,1.262,0.872,2.085,0.872c1.639,0,2.957-1.318,2.957-2.95s-1.318-2.964-2.957-2.964c-0.823,0-1.555,0.335-2.085,0.872
		h-6.43v-3.382c3.11-1.213,5.349-4.24,5.349-7.783c0-4.616-3.772-8.389-8.375-8.389c-4.617,0-8.396,3.773-8.396,8.389
		c0,3.787,2.566,6.967,6.039,7.985v3.18H76.08c-0.551-0.537-1.283-0.872-2.1-0.872c-1.631,0-2.978,1.332-2.978,2.964
		s1.346,2.95,2.978,2.95c0.816,0,1.548-0.314,2.1-0.872h7.099v28.034c-7.287-0.523-13.675-3.369-16.869-9.373l2.357-0.509
		l-7.26-7.908l-3.229,10.224l2.733-0.614c4.003,8.752,13.09,15.781,23.369,16.472l1.569,5.809l1.618-5.795
		c9.763-0.655,18.459-7.085,22.762-15.174l2.65,0.773L110.327,168.625z M85.536,146.038c-2.378,0-4.31-1.911-4.31-4.282
		c0-2.399,1.932-4.31,4.31-4.31c2.364,0,4.295,1.938,4.295,4.31S87.899,146.038,85.536,146.038"/>
	<path fill="#505051" d="M205.265,274.358c16.932,4.156,33.201,9.456,49.31,16.011c-1.688-7.008-2.629-10.522-4.763-17.552
		c6.401-3.738,9.693-5.517,16.458-8.912c-17.699-7.26-35.628-13.069-54.233-17.608C209.776,255.648,207.517,265.014,205.265,274.358
		"/>
	<polygon fill="#231F20" points="241.604,270.007 205.271,274.338 212.189,245.627 251.764,244.107 	"/>
	<path fill="#505051" d="M72.063,274.567c-16.918,4.163-33.208,9.442-49.317,16.012c1.688-7.022,2.629-10.517,4.77-17.553
		c-6.408-3.724-9.693-5.517-16.464-8.926c17.706-7.231,35.635-13.069,54.248-17.595C67.543,255.864,69.81,265.209,72.063,274.567"/>
	<polygon fill="#231F20" points="35.654,270.069 72.063,274.484 65.096,245.683 25.542,244.051 	"/>
	<path fill="#65676A" d="M251.792,244.051c-37.274-19.588-74.966-29.143-113.132-28.988h-0.258c-0.307,0-0.627,0-0.955,0v0.014
		c-36.841,0.544-74.136,10.286-111.919,28.975c3.368,8.662,6.723,17.315,10.091,25.984c42.113-17.218,72.609-25.872,102.595-26.096
		c30.886,0,61.388,8.745,103.376,26.096C244.993,261.366,248.396,252.713,251.792,244.051"/>
	<polygon fill="#E2B623" points="174.713,229.253 175.299,231.199 176.952,230.027 176.275,231.945 178.298,231.966 
		176.638,233.124 178.256,234.337 176.227,234.288 176.827,236.213 175.223,234.979 174.574,236.896 173.995,234.958 
		172.342,236.129 172.998,234.226 170.982,234.19 172.656,233.04 171.024,231.819 173.054,231.883 172.461,229.943 174.065,231.178 
			"/>
	<polygon fill="#E2B623" points="94.239,229.253 94.803,231.199 96.47,230.027 95.793,231.945 97.816,231.966 96.149,233.124 
		97.767,234.337 95.738,234.288 96.337,236.213 94.734,234.979 94.078,236.896 93.506,234.958 91.854,236.129 92.523,234.226 
		90.494,234.19 92.188,233.04 90.556,231.819 92.579,231.883 91.965,229.943 93.59,231.178 	"/>
	<path fill="#FAE892" d="M200.934,50.235l-1.959,2.601c7.106,5.321,8.563,15.446,3.215,22.566c-2.566,3.438-6.339,5.663-10.6,6.27
		c-4.268,0.6-8.515-0.488-11.953-3.062l-1.946,2.594c3.39,2.538,7.42,3.884,11.583,3.884c0,0,0.07-0.021,0.111-0.021v2.392h-5.523
		v3.703h14.275V87.46h-5.53v-2.671c4.888-0.851,9.191-3.48,12.183-7.455C211.192,68.785,209.456,56.637,200.934,50.235"/>
	<path fill="#FAE892" d="M180.139,61.567c0.99,1.485,1.722,4.749,3.661,5.244c1.066,0.265,1.025,0.397,0.885-0.586
		c-0.098-0.516-0.195-1.046-0.216-1.569c-0.063-1.485-1.464-2.831-1.053-4.394c0.481-1.771,1.994-2.406,1.583-4.519
		c-0.223-1.207-0.509-2.336-0.642-3.501c-2.511,0.914-4.819,2.545-6.527,4.847c-0.53,0.704-0.983,1.43-1.36,2.183
		C177.928,59.489,179.218,60.221,180.139,61.567"/>
	<path fill="#FAE892" d="M180.676,77.202c6.36,4.77,15.356,3.487,20.119-2.859c0.377-0.509,0.726-1.039,1.019-1.583
		c-1.534-0.857-2.978-1.953-4.345-3.033c-1.667-1.311-3.912-3.089-4.156-5.384c-0.237-2.42,1.66-3.591,3.877-3.333
		c2.148,0.258,1.848-1.186,2.769-2.531c0.321-0.453,0.656-0.816,1.046-1.116c-0.837-1.165-1.869-2.231-3.083-3.124
		c-3.34-2.518-7.42-3.347-11.22-2.643c0.16,2.05,0.878,4.031,0.718,6.123c-0.125,2.016-2.162,2.434-1.053,4.777
		c0.823,1.75,1.409,5.307-0.349,6.611c-2.064,1.492-5.119-1.116-6.025-2.79c-1.249-2.259-1.883-4.54-4.442-4.693
		C173.87,67.215,175.731,73.506,180.676,77.202"/>
	<path fill="#FAE892" d="M196.032,64.949c1.416,2.127,4.177,4.337,6.764,5.704c1.339-3.675,1.116-7.733-0.558-11.199
		c-0.969,1.011-0.942,2.95-2.399,3.577C198.667,63.547,194.713,62.961,196.032,64.949"/>
	<path fill="#FFFFFF" d="M40.772,255.648l2.253-1.305c1.06,1.758,2.357,2.302,3.821,1.66c0.732-0.313,1.228-0.753,1.479-1.318
		c0.251-0.558,0.251-1.129,0.007-1.701c-0.146-0.328-0.335-0.579-0.586-0.732c-0.258-0.174-0.558-0.279-0.914-0.293
		c-0.376-0.021-1.199,0.042-2.517,0.195c-1.158,0.133-2.058,0.126-2.692-0.027c-0.635-0.154-1.228-0.481-1.771-0.935
		c-0.544-0.488-0.948-1.061-1.255-1.751c-0.355-0.788-0.467-1.583-0.383-2.378s0.37-1.499,0.872-2.099
		c0.495-0.6,1.199-1.123,2.148-1.527c1.409-0.606,2.671-0.697,3.793-0.279c1.123,0.419,2.016,1.332,2.685,2.734l-2.371,1.186
		c-0.439-0.739-0.914-1.186-1.402-1.347c-0.488-0.16-1.053-0.091-1.701,0.188c-0.656,0.272-1.102,0.642-1.339,1.061
		c-0.23,0.425-0.258,0.836-0.084,1.241c0.174,0.397,0.481,0.655,0.92,0.788c0.439,0.139,1.291,0.118,2.581-0.057
		c1.38-0.174,2.413-0.181,3.124-0.027c0.718,0.146,1.339,0.475,1.896,0.955c0.551,0.51,1.025,1.165,1.409,2.058
		c0.544,1.269,0.62,2.511,0.223,3.71c-0.411,1.199-1.45,2.162-3.103,2.887C44.928,259.805,42.564,258.856,40.772,255.648"/>
	<polygon fill="#FFFFFF" points="54.496,255.418 48.833,240.516 57.906,237.092 58.854,239.602 52.265,242.105 53.513,245.411 
		59.643,243.082 60.598,245.6 54.461,247.922 55.996,251.973 62.823,249.372 63.785,251.89 	"/>
	<polygon fill="#FFFFFF" points="65.745,251.213 60.765,236.073 69.978,233.054 70.814,235.606 64.099,237.824 65.208,241.171 
		71.449,239.114 72.286,241.68 66.051,243.724 67.404,247.838 74.343,245.551 75.18,248.117 	"/>
	<polygon fill="#FFFFFF" points="77.174,247.503 72.899,232.147 75.424,231.45 77.334,238.284 80.57,230.027 84.001,229.072 
		80.919,236.373 88.52,244.358 85.229,245.265 79.748,239.023 78.409,242.161 79.706,246.806 	"/>
	<path fill="#FFFFFF" d="M102.809,235.899l2.482-0.726c0.621,1.953,1.723,2.804,3.319,2.531c0.781-0.125,1.36-0.439,1.75-0.928
		c0.376-0.474,0.509-1.031,0.412-1.631c-0.056-0.363-0.188-0.656-0.391-0.879c-0.202-0.217-0.467-0.384-0.816-0.488
		c-0.349-0.119-1.179-0.244-2.476-0.412c-1.179-0.153-2.043-0.376-2.622-0.689c-0.579-0.286-1.074-0.754-1.485-1.34
		c-0.412-0.578-0.684-1.241-0.802-1.994c-0.153-0.844-0.083-1.652,0.195-2.398c0.265-0.754,0.726-1.367,1.346-1.827
		c0.621-0.468,1.443-0.795,2.455-0.948c1.506-0.259,2.762-0.042,3.752,0.627c0.983,0.677,1.639,1.778,1.945,3.299l-2.587,0.579
		c-0.244-0.823-0.586-1.381-1.025-1.64c-0.439-0.271-1.004-0.355-1.715-0.229c-0.697,0.111-1.207,0.349-1.534,0.718
		c-0.335,0.35-0.467,0.739-0.391,1.172c0.077,0.426,0.314,0.768,0.705,0.99c0.383,0.237,1.234,0.426,2.531,0.564
		c1.367,0.161,2.378,0.398,3.026,0.705c0.669,0.32,1.192,0.802,1.611,1.408c0.418,0.607,0.705,1.381,0.872,2.315
		c0.216,1.374,0.007,2.594-0.676,3.668c-0.69,1.06-1.917,1.758-3.71,2.058C105.822,240.927,103.757,239.435,102.809,235.899"/>
	<polygon fill="#FFFFFF" points="116.177,238.961 114.294,223.138 116.91,222.83 117.649,229.051 122.802,228.438 122.056,222.224 
		124.671,221.903 126.547,237.727 123.946,238.033 123.116,231.115 117.962,231.729 118.792,238.646 	"/>
	<path fill="#FFFFFF" d="M140.655,237.266l-2.846,0.07l-1.241-3.599l-5.223,0.111l-0.99,3.626l-2.81,0.057l4.756-16.025l2.789-0.056
		L140.655,237.266z M135.682,231.066l-1.932-5.886l-1.646,5.955L135.682,231.066z"/>
	<path fill="#FFFFFF" d="M141.812,237.336l0.711-15.928l5.551,0.265c1.408,0.056,2.419,0.244,3.012,0.565
		c0.593,0.293,1.074,0.822,1.43,1.541c0.37,0.732,0.523,1.576,0.474,2.559c-0.056,1.242-0.391,2.239-1.011,2.979
		c-0.642,0.711-1.506,1.164-2.622,1.311c0.558,0.439,0.998,0.893,1.346,1.395s0.816,1.388,1.395,2.657l1.437,3.173l-3.138-0.133
		l-1.75-3.556c-0.627-1.283-1.06-2.078-1.297-2.406c-0.237-0.335-0.474-0.558-0.76-0.684c-0.258-0.146-0.69-0.209-1.297-0.244
		l-0.558-0.021l-0.293,6.652L141.812,237.336z M144.853,228.263l1.953,0.077c1.186,0.069,1.959,0.042,2.287-0.049
		c0.328-0.084,0.6-0.279,0.823-0.6c0.216-0.307,0.342-0.719,0.355-1.256c0.035-0.495-0.056-0.913-0.244-1.234
		c-0.188-0.313-0.453-0.536-0.809-0.662c-0.244-0.091-0.941-0.16-2.127-0.23l-2.064-0.09L144.853,228.263z"/>
	<polygon fill="#FFFFFF" points="154.734,237.991 156.366,222.133 166.01,223.138 165.731,225.822 158.695,225.09 158.339,228.604 
		164.874,229.274 164.588,231.945 158.067,231.269 157.621,235.585 164.888,236.324 164.616,239.01 	"/>
	<path fill="#FFFFFF" d="M181.896,236.708l2.566,0.328c-0.216,2.043,0.46,3.264,2.016,3.661c0.767,0.188,1.437,0.146,1.974-0.146
		c0.544-0.3,0.906-0.746,1.039-1.346c0.097-0.342,0.097-0.663,0-0.949c-0.091-0.278-0.279-0.551-0.551-0.781
		c-0.279-0.236-0.976-0.697-2.099-1.373c-1.004-0.607-1.715-1.165-2.12-1.688c-0.418-0.502-0.683-1.123-0.823-1.807
		c-0.153-0.711-0.125-1.43,0.056-2.147c0.216-0.851,0.593-1.556,1.144-2.134c0.565-0.572,1.206-0.949,1.974-1.13
		c0.767-0.161,1.646-0.133,2.636,0.118c1.479,0.37,2.545,1.081,3.18,2.085c0.621,1.025,0.781,2.288,0.46,3.808l-2.594-0.502
		c0.084-0.857,0-1.506-0.3-1.932c-0.286-0.426-0.774-0.719-1.471-0.899c-0.684-0.175-1.249-0.16-1.688,0.035
		c-0.454,0.202-0.726,0.502-0.844,0.941c-0.098,0.411-0.007,0.802,0.251,1.171c0.258,0.377,0.976,0.9,2.099,1.527
		c1.192,0.711,2.015,1.346,2.482,1.89c0.474,0.552,0.774,1.207,0.906,1.918c0.133,0.739,0.077,1.563-0.139,2.489
		c-0.335,1.332-1.039,2.357-2.092,3.062c-1.053,0.712-2.461,0.837-4.226,0.397C182.635,242.531,181.359,240.327,181.896,236.708"/>
	<polygon fill="#FFFFFF" points="192.908,245.034 197.252,229.699 206.576,232.343 205.857,234.951 199.051,233.012 
		198.096,236.422 204.407,238.2 203.661,240.787 197.35,239.01 196.192,243.158 203.201,245.146 202.468,247.74 	"/>
	<path fill="#FFFFFF" d="M204.511,248.333l4.833-15.182l5.293,1.674c1.353,0.439,2.273,0.879,2.775,1.339
		c0.474,0.46,0.809,1.074,0.962,1.869c0.167,0.788,0.104,1.659-0.209,2.594c-0.369,1.192-0.962,2.064-1.757,2.608
		c-0.809,0.537-1.758,0.739-2.866,0.571c0.418,0.579,0.732,1.145,0.927,1.709c0.216,0.564,0.432,1.548,0.656,2.929l0.572,3.438
		l-2.999-0.941l-0.768-3.892c-0.279-1.395-0.488-2.28-0.634-2.664c-0.132-0.376-0.307-0.662-0.537-0.864
		c-0.223-0.195-0.634-0.377-1.207-0.565l-0.523-0.16l-2.008,6.332L204.511,248.333z M209.804,240.369l1.862,0.593
		c1.144,0.349,1.876,0.537,2.231,0.537c0.342,0,0.648-0.119,0.941-0.355c0.293-0.259,0.509-0.628,0.676-1.123
		c0.161-0.488,0.182-0.906,0.07-1.255c-0.098-0.356-0.286-0.642-0.579-0.865c-0.209-0.153-0.886-0.397-2.001-0.76l-1.98-0.635
		L209.804,240.369z"/>
	<polygon fill="#FFFFFF" points="219.777,253.368 220.795,236.799 223.479,237.761 222.587,249.979 229.609,239.985 232.246,240.92 
		222.419,254.316 	"/>
	<polygon fill="#FFFFFF" points="227.866,256.324 234.038,241.639 242.971,245.397 241.925,247.873 235.412,245.146 
		234.051,248.402 240.104,250.948 239.051,253.41 233.012,250.878 231.332,254.867 238.061,257.691 237.022,260.181 	"/>
</g>
<rect x="303.955" y="265.586" fill="#FFFFFF" width="185.233" height="2.74"/>
<rect x="755.537" y="265.586" fill="#FFFFFF" width="183.391" height="2.74"/>
<g>
	<path fill="#FFFFFF" d="M385.419,34.949l55.189,147.965h-23.662l-15.23-43.557h-56.431l-15.878,43.557H309.52l60.28-147.965
		H385.419z M396.829,124.573c-3.641-10.3-7.302-20.802-10.956-31.5c-3.703-10.711-7.357-22.775-11.011-36.186h-0.411
		c-3.822,13.41-7.664,25.475-11.542,36.186c-3.898,10.698-7.859,21.2-11.932,31.5H396.829z"/>
	<polygon fill="#FFFFFF" points="458.593,34.942 479.097,34.942 479.097,168.123 540.597,168.123 540.597,182.9 458.593,182.9 	"/>
	<path fill="#FFFFFF" d="M581.846,182.914H561.33V34.949h37.184c15.662,0,27.999,3.487,37.009,10.558
		c8.996,7.043,13.549,17.741,13.549,32.106c0,6.22-1.311,12.225-3.828,17.971c-2.504,5.788-6.199,10.872-10.983,15.244
		c-4.791,4.352-10.544,7.817-17.238,10.446c-6.702,2.608-14.212,3.919-22.497,3.919h-6.583v-13.522l6.778-0.209
		c9.993-0.565,17.901-3.584,23.668-8.996c5.774-5.433,8.683-13.619,8.683-24.631c0-8.159-2.427-14.916-7.295-20.188
		c-4.874-5.271-12.796-7.922-23.779-7.922h-14.149V182.914z"/>
	<polygon fill="#FFFFFF" points="789.191,182.914 768.682,182.914 768.682,109.356 696.401,109.356 696.401,182.914 
		675.906,182.914 675.906,34.949 696.401,34.949 696.401,94.538 768.682,94.538 768.682,34.949 789.191,34.949 	"/>
	<path fill="#FFFFFF" d="M883.048,34.949l55.182,147.965h-23.654l-15.23-43.557h-56.458l-15.83,43.557h-19.896L867.42,34.949
		H883.048z M894.478,124.573c-3.654-10.3-7.329-20.802-11.011-31.5c-3.654-10.711-7.309-22.775-10.977-36.186h-0.419
		c-3.808,13.41-7.636,25.475-11.507,36.186c-3.904,10.698-7.865,21.2-11.938,31.5H894.478z"/>
</g>
<g>
	<path fill="#FFFFFF" d="M343.467,237.168l-2.712,0.914c-1.813,0.635-4.031,1.102-6.646,1.408c-2.03,0.237-4.038,0.363-6.025,0.363
		c-5.321,0-9.805-1.849-13.452-5.537c-3.647-3.689-5.468-8.32-5.468-13.885c0-5.69,1.89-10.509,5.677-14.449
		s8.55-5.906,14.289-5.906c2.531,0,4.735,0.16,6.597,0.488c1.869,0.327,3.619,0.941,5.258,1.834l2.127,1.144l-2.259,3.208
		l-2.357-1.34c-0.739-0.418-1.848-0.787-3.326-1.115c-1.472-0.328-2.971-0.488-4.498-0.488c-0.635,0-1.262,0.035-1.897,0.098
		c-4.324,0.523-7.692,2.294-10.098,5.3c-2.413,3.013-3.62,6.813-3.62,11.396c0,4.232,1.325,7.852,3.976,10.857
		c2.657,2.998,5.99,4.498,10,4.498c3.473,0,6.067-0.286,7.796-0.851l1.207-0.426v-13.166h5.432V237.168z"/>
	<path fill="#FFFFFF" d="M375.252,238.215l-5.37,1.708l-9.072-16.702l-5.718-0.007v16.081h-5.307v-38.766h11.723
		c2.859,0,5.237,0.767,7.134,2.294c1.771,1.416,2.839,3.264,3.208,5.53c0.133,0.788,0.195,1.576,0.195,2.357
		c0,2.008-0.425,3.87-1.276,5.586c-0.851,1.708-2.127,3.207-3.828,4.497l-1.374,1.019L375.252,238.215z M366.354,210.647
		c0-2.071-0.613-3.646-1.834-4.714c-1.228-1.066-2.95-1.604-5.174-1.604h-4.254v15.056h3.668c2.176,0,3.989-0.781,5.432-2.357
		C365.629,215.46,366.354,213.333,366.354,210.647z"/>
	<path fill="#FFFFFF" d="M418.433,219.748c0,5.677-1.757,10.412-5.272,14.213c-3.647,3.946-8.382,5.92-14.205,5.92
		c-5.523,0-10.133-1.945-13.836-5.844c-3.696-3.898-5.544-8.661-5.544-14.289c0-5.349,1.834-9.993,5.517-13.926
		c3.675-3.94,8.096-5.914,13.271-5.914c6.088,0,10.99,1.911,14.7,5.732C416.64,209.302,418.433,214.009,418.433,219.748z
		 M412.345,219.748c0-4.498-1.053-8.166-3.145-10.997c-2.42-3.299-5.99-4.944-10.705-4.944c-4.017,0-7.231,1.639-9.658,4.909
		c-2.204,2.992-3.306,6.667-3.306,11.032c0,4.673,1.242,8.543,3.717,11.625c2.476,3.075,5.711,4.617,9.707,4.617
		c4.038,0,7.273-1.479,9.721-4.436C411.118,228.591,412.345,224.658,412.345,219.748z"/>
	<path fill="#FFFFFF" d="M454.312,225.474c0,2.406-0.377,4.484-1.13,6.255c-0.753,1.771-2.009,3.452-3.752,5.042
		c-1.088,0.983-2.566,1.778-4.436,2.378c-1.869,0.6-3.814,0.9-5.844,0.9c-1.527,0-3.005-0.175-4.435-0.51
		c-1.429-0.342-2.775-0.879-4.044-1.617c-2.309-1.332-3.982-3.132-5.007-5.405c-0.914-2.029-1.374-4.54-1.374-7.531v-24.456h5.467
		v23.996c0,2.141,0.272,4.017,0.816,5.635c0.725,2.141,1.904,3.675,3.535,4.603c1.639,0.927,3.452,1.388,5.433,1.388
		c1.27,0,2.511-0.209,3.738-0.635c1.22-0.426,2.287-1.053,3.208-1.883c1.067-0.983,1.806-2.315,2.225-4.003
		c0.328-1.325,0.488-3.082,0.488-5.265v-23.836h5.112V225.474z"/>
	<path fill="#FFFFFF" d="M483.282,209.797c0.084,0.544,0.125,1.144,0.125,1.799c0,3.425-1.353,6.374-4.059,8.836
		c-2.705,2.469-5.971,3.703-9.785,3.703h-0.948v-3.501l0.851-0.034c2.378,0,4.31-0.719,5.788-2.155
		c1.641-1.59,2.464-3.801,2.464-6.632c0-2.594-0.754-4.52-2.262-5.781c-1.29-1.066-3.068-1.604-5.342-1.604h-4.086v34.867h-5.565
		v-38.766h11.06c3.124,0,5.678,0.704,7.666,2.099C481.434,204.197,482.8,206.589,483.282,209.797z"/>
	<path fill="#FFFFFF" d="M540.563,219.748c0,5.677-1.758,10.412-5.272,14.213c-3.641,3.946-8.375,5.92-14.205,5.92
		c-5.523,0-10.133-1.945-13.829-5.844c-3.703-3.898-5.551-8.661-5.551-14.289c0-5.349,1.842-9.993,5.517-13.926
		c3.675-3.94,8.103-5.914,13.277-5.914c6.088,0,10.983,1.911,14.693,5.732C538.778,209.302,540.563,214.009,540.563,219.748z
		 M534.475,219.748c0-4.498-1.047-8.166-3.146-10.997c-2.42-3.299-5.99-4.944-10.704-4.944c-4.01,0-7.232,1.639-9.652,4.909
		c-2.203,2.992-3.305,6.667-3.305,11.032c0,4.673,1.234,8.543,3.71,11.625c2.476,3.075,5.711,4.617,9.707,4.617
		c4.038,0,7.28-1.479,9.721-4.436C533.254,228.591,534.475,224.658,534.475,219.748z"/>
	<path fill="#FFFFFF" d="M566.065,204.364h-13.647v13.354h13.417v3.892h-13.417v17.685h-5.37v-38.766h19.018V204.364z"/>
	<path fill="#FFFFFF" d="M591.595,239.295h-5.565v-38.766h5.565V239.295z"/>
	<path fill="#FFFFFF" d="M629.273,239.428l-3.612,0.007l-22.873-30.111v29.972h-4.512v-38.766h3.466l23.18,30.517v-30.517h4.352
		V239.428z"/>
	<path fill="#FFFFFF" d="M658.506,230.787c-0.286,2.664-1.548,4.868-3.779,6.611c-2.238,1.743-4.861,2.615-7.873,2.615
		c-4.345,0-7.922-0.963-10.74-2.88l-1.143-0.754l2.517-3.473l2.1,1.276c0.913,0.551,1.987,1.004,3.222,1.381
		c1.234,0.369,2.44,0.551,3.619,0.551c1.569,0,2.957-0.411,4.156-1.241s1.91-1.974,2.127-3.438c0.021-0.236,0.049-0.467,0.084-0.683
		c0.027-0.224,0.049-0.468,0.049-0.726c0-1.374-0.384-2.643-1.15-3.801c-0.628-0.935-1.563-1.883-2.797-2.845
		c-1.234-0.963-2.441-1.89-3.619-2.782c-1.305-0.983-2.608-1.974-3.892-2.979c-1.485-1.22-2.587-2.392-3.306-3.508
		c-0.92-1.437-1.381-3.026-1.381-4.776c0-2.727,1.137-4.986,3.41-6.778c2.155-1.701,4.742-2.553,7.755-2.553
		c1.925,0,3.528,0.16,4.812,0.481c1.29,0.321,2.602,0.962,3.926,1.932l1.381,0.99l-2.852,3.082l-1.339-0.906
		c-0.899-0.606-1.8-1.032-2.72-1.29c-0.914-0.265-2.016-0.391-3.306-0.391c-1.464,0-2.727,0.467-3.794,1.408
		c-1.073,0.935-1.604,2.1-1.604,3.494c0,1.967,1.206,3.885,3.633,5.76c1.221,0.914,2.455,1.828,3.696,2.748
		c2.706,2.155,4.149,3.313,4.323,3.466c1.507,1.304,2.595,2.553,3.271,3.724c0.851,1.465,1.275,3.11,1.275,4.944
		c0,0.279,0,0.551,0,0.816C658.528,230.502,658.506,230.683,658.506,230.787z"/>
	<path fill="#FFFFFF" d="M693.695,204.428h-12.343v34.867h-5.363v-34.867h-12.538v-3.898h30.244V204.428z"/>
	<path fill="#FFFFFF" d="M705.641,239.295h-5.565v-38.766h5.565V239.295z"/>
	<path fill="#FFFFFF" d="M741.813,204.428h-12.344v34.867h-5.362v-34.867h-12.538v-3.898h30.244V204.428z"/>
	<path fill="#FFFFFF" d="M776.875,225.474c0,2.406-0.376,4.484-1.129,6.255c-0.754,1.771-2.009,3.452-3.752,5.042
		c-1.088,0.983-2.566,1.778-4.436,2.378s-3.814,0.9-5.844,0.9c-1.527,0-3.006-0.175-4.436-0.51c-1.43-0.342-2.775-0.879-4.045-1.617
		c-2.308-1.332-3.981-3.132-5.007-5.405c-0.913-2.029-1.374-4.54-1.374-7.531v-24.456h5.468v23.996c0,2.141,0.272,4.017,0.815,5.635
		c0.726,2.141,1.904,3.675,3.536,4.603c1.639,0.927,3.452,1.388,5.433,1.388c1.27,0,2.51-0.209,3.737-0.635
		c1.221-0.426,2.288-1.053,3.208-1.883c1.067-0.983,1.807-2.315,2.225-4.003c0.328-1.325,0.488-3.082,0.488-5.265v-23.836h5.111
		V225.474z"/>
	<path fill="#FFFFFF" d="M811.834,204.428h-12.344v34.867h-5.369v-34.867h-12.539v-3.898h30.252V204.428z"/>
	<path fill="#FFFFFF" d="M823.78,239.295h-5.564v-38.766h5.564V239.295z"/>
	<path fill="#FFFFFF" d="M869.248,219.748c0,5.677-1.757,10.412-5.272,14.213c-3.646,3.946-8.382,5.92-14.205,5.92
		c-5.522,0-10.132-1.945-13.835-5.844c-3.696-3.898-5.544-8.661-5.544-14.289c0-5.349,1.834-9.993,5.516-13.926
		c3.676-3.94,8.097-5.914,13.271-5.914c6.088,0,10.99,1.911,14.699,5.732C867.456,209.302,869.248,214.009,869.248,219.748z
		 M863.16,219.748c0-4.498-1.053-8.166-3.146-10.997c-2.42-3.299-5.99-4.944-10.704-4.944c-4.017,0-7.231,1.639-9.658,4.909
		c-2.204,2.992-3.306,6.667-3.306,11.032c0,4.673,1.241,8.543,3.717,11.625c2.476,3.075,5.712,4.617,9.707,4.617
		c4.038,0,7.273-1.479,9.722-4.436C861.932,228.591,863.16,224.658,863.16,219.748z"/>
	<path fill="#FFFFFF" d="M906.041,239.428l-3.612,0.007l-22.873-30.111v29.972h-4.513v-38.766h3.466l23.181,30.517v-30.517h4.352
		V239.428z"/>
	<path fill="#FFFFFF" d="M935.274,230.787c-0.286,2.664-1.549,4.868-3.78,6.611c-2.238,1.743-4.86,2.615-7.873,2.615
		c-4.345,0-7.922-0.963-10.739-2.88l-1.144-0.754l2.518-3.473l2.099,1.276c0.914,0.551,1.987,1.004,3.222,1.381
		c1.234,0.369,2.44,0.551,3.619,0.551c1.569,0,2.957-0.411,4.156-1.241c1.2-0.83,1.911-1.974,2.127-3.438
		c0.021-0.236,0.049-0.467,0.084-0.683c0.028-0.224,0.049-0.468,0.049-0.726c0-1.374-0.384-2.643-1.15-3.801
		c-0.628-0.935-1.563-1.883-2.797-2.845c-1.234-0.963-2.44-1.89-3.619-2.782c-1.304-0.983-2.608-1.974-3.892-2.979
		c-1.484-1.22-2.587-2.392-3.305-3.508c-0.921-1.437-1.381-3.026-1.381-4.776c0-2.727,1.137-4.986,3.41-6.778
		c2.154-1.701,4.742-2.553,7.754-2.553c1.925,0,3.529,0.16,4.813,0.481c1.29,0.321,2.601,0.962,3.926,1.932l1.381,0.99l-2.853,3.082
		l-1.339-0.906c-0.899-0.606-1.799-1.032-2.72-1.29c-0.913-0.265-2.015-0.391-3.306-0.391c-1.464,0-2.727,0.467-3.793,1.408
		c-1.074,0.935-1.604,2.1-1.604,3.494c0,1.967,1.207,3.885,3.634,5.76c1.221,0.914,2.454,1.828,3.695,2.748
		c2.706,2.155,4.149,3.313,4.324,3.466c1.506,1.304,2.594,2.553,3.271,3.724c0.851,1.465,1.276,3.11,1.276,4.944
		c0,0.279,0,0.551,0,0.816C935.294,230.502,935.274,230.683,935.274,230.787z"/>
</g>
<g>
	<path fill="#FFFFFF" d="M508.463,279.756h-12.302V257.72h10.907v2.176h-7.853v7.183h7.706v2.218h-7.706v8.249h9.247V279.756z"/>
	<path fill="#FFFFFF" d="M524.865,274.923c-0.16,1.514-0.878,2.762-2.154,3.759c-1.27,0.99-2.762,1.485-4.471,1.485
		c-2.476,0-4.505-0.544-6.108-1.639l-0.648-0.425l1.43-1.974l1.192,0.725c0.522,0.308,1.13,0.572,1.834,0.781
		c0.697,0.209,1.388,0.313,2.058,0.313c0.893,0,1.68-0.236,2.363-0.704c0.684-0.474,1.081-1.122,1.207-1.952
		c0.014-0.14,0.027-0.272,0.049-0.391c0.021-0.126,0.027-0.266,0.027-0.411c0-0.781-0.216-1.507-0.648-2.162
		c-0.362-0.537-0.893-1.074-1.597-1.618c-0.697-0.551-1.381-1.074-2.058-1.583c-0.739-0.558-1.479-1.122-2.211-1.694
		c-0.844-0.697-1.471-1.359-1.883-1.994c-0.516-0.816-0.78-1.723-0.78-2.713c0-1.556,0.648-2.838,1.938-3.856
		c1.228-0.97,2.699-1.45,4.407-1.45c1.095,0,2.009,0.09,2.74,0.271c0.732,0.182,1.472,0.551,2.231,1.102l0.781,0.559l-1.617,1.757
		l-0.768-0.516c-0.509-0.342-1.018-0.593-1.541-0.739s-1.15-0.217-1.883-0.217c-0.83,0-1.549,0.266-2.155,0.795
		c-0.613,0.537-0.913,1.2-0.913,1.995c0,1.115,0.69,2.203,2.064,3.271c0.697,0.523,1.395,1.039,2.105,1.562
		c1.534,1.228,2.357,1.884,2.455,1.974c0.857,0.739,1.479,1.451,1.861,2.12c0.481,0.83,0.726,1.765,0.726,2.811
		c0,0.16,0,0.313,0,0.46C524.872,274.763,524.865,274.86,524.865,274.923z"/>
	<path fill="#FFFFFF" d="M544.872,259.93h-7.015v19.826h-3.055V259.93h-7.127v-2.21h17.196V259.93z"/>
	<path fill="#FFFFFF" d="M566.239,279.756h-3.313l-2.328-6.534h-8.564l-2.385,6.534h-2.713l8.863-22.036h2.029L566.239,279.756z
		 M559.831,271.004l-3.383-9.421l-3.604,9.421H559.831z"/>
	<path fill="#FFFFFF" d="M583.025,273.396c0,1.841-0.698,3.354-2.1,4.561c-1.401,1.199-3.2,1.799-5.397,1.799h-6.514V257.72h7.441
		c1.416,0,2.607,0.383,3.577,1.157c1.054,0.83,1.576,1.953,1.576,3.368c0,1.248-0.307,2.322-0.935,3.235
		c-0.627,0.914-1.534,1.625-2.713,2.12l-0.739,0.314l1.095,0.153c1.402,0.174,2.539,0.753,3.403,1.743
		C582.592,270.802,583.025,272.001,583.025,273.396z M578.673,263.033c0-1.137-0.391-1.96-1.172-2.469
		c-0.648-0.418-1.521-0.635-2.629-0.635h-2.845v7.393h1.917c1.304,0,2.413-0.404,3.341-1.207
		C578.206,265.313,578.673,264.288,578.673,263.033z M579.824,273.438c0-1.353-0.495-2.378-1.485-3.082
		c-0.886-0.635-2.029-0.948-3.445-0.948h-2.865v8.264h3.109c1.325,0,2.413-0.335,3.257-1.005
		C579.349,275.913,579.824,274.84,579.824,273.438z"/>
	<path fill="#FFFFFF" d="M598.458,279.756H586.1V257.72h3.158v19.825h9.199V279.756z"/>
	<path fill="#FFFFFF" d="M605.214,279.756h-3.166V257.72h3.166V279.756z"/>
	<path fill="#FFFFFF" d="M622.537,274.923c-0.16,1.514-0.872,2.762-2.147,3.759c-1.27,0.99-2.762,1.485-4.478,1.485
		c-2.468,0-4.505-0.544-6.102-1.639l-0.655-0.425l1.437-1.974l1.192,0.725c0.523,0.308,1.13,0.572,1.834,0.781
		c0.697,0.209,1.388,0.313,2.057,0.313c0.893,0,1.682-0.236,2.364-0.704c0.677-0.474,1.081-1.122,1.207-1.952
		c0.014-0.14,0.027-0.272,0.048-0.391c0.015-0.126,0.028-0.266,0.028-0.411c0-0.781-0.216-1.507-0.655-2.162
		c-0.355-0.537-0.886-1.074-1.59-1.618c-0.697-0.551-1.388-1.074-2.058-1.583c-0.746-0.558-1.479-1.122-2.21-1.694
		c-0.844-0.697-1.472-1.359-1.883-1.994c-0.523-0.816-0.781-1.723-0.781-2.713c0-1.556,0.642-2.838,1.932-3.856
		c1.234-0.97,2.698-1.45,4.414-1.45c1.095,0,2.002,0.09,2.733,0.271c0.732,0.182,1.479,0.551,2.239,1.102l0.78,0.559l-1.618,1.757
		l-0.767-0.516c-0.509-0.342-1.025-0.593-1.541-0.739c-0.523-0.146-1.15-0.217-1.883-0.217c-0.83,0-1.548,0.266-2.162,0.795
		c-0.606,0.537-0.906,1.2-0.906,1.995c0,1.115,0.684,2.203,2.063,3.271c0.698,0.523,1.396,1.039,2.1,1.562
		c1.541,1.228,2.364,1.884,2.462,1.974c0.857,0.739,1.478,1.451,1.861,2.12c0.481,0.83,0.726,1.765,0.726,2.811
		c0,0.16,0,0.313,0,0.46C622.551,274.763,622.537,274.86,622.537,274.923z"/>
	<path fill="#FFFFFF" d="M642.676,279.756h-3.159v-11.019h-10.516v11.019h-3.222V257.72h3.222v8.8h10.516v-8.8h3.159V279.756z"/>
	<path fill="#FFFFFF" d="M658.297,279.756h-12.302V257.72h10.907v2.176h-7.859v7.183h7.705v2.218h-7.705v8.249h9.254V279.756z"/>
	<path fill="#FFFFFF" d="M680.557,267.343c0,3.041-0.663,5.551-1.994,7.538c-1.131,1.702-2.713,2.971-4.742,3.815
		c-1.688,0.704-3.543,1.06-5.551,1.06h-6.813V257.72h8.34c2.901,0,5.356,0.773,7.351,2.322
		C679.42,261.806,680.557,264.239,680.557,267.343z M677.167,268.71c0-2.985-0.726-5.21-2.183-6.688
		c-1.388-1.416-3.403-2.127-6.039-2.127h-4.436v17.649h3.654c2.699,0,4.813-0.648,6.34-1.938
		C676.282,274.101,677.167,271.799,677.167,268.71z"/>
	<path fill="#FFFFFF" d="M699.092,279.756h-2.998v-19.568l-4.205,1.751l-0.726-1.855l5.956-2.363h1.973V279.756z"/>
	<path fill="#FFFFFF" d="M717.071,265.48c0,3.501-1.312,6.709-3.94,9.645c-2.58,2.873-5.544,4.506-8.884,4.889l-0.628,0.077v-2.085
		c0.857-0.133,1.652-0.342,2.392-0.621s1.521-0.684,2.35-1.221c1.109-0.718,2.03-1.499,2.776-2.343
		c0.746-0.851,1.297-1.743,1.659-2.685l0.517-1.36l-1.151,0.69c-0.509,0.314-1.073,0.537-1.694,0.677
		c-0.62,0.146-1.234,0.216-1.841,0.216c-1.841,0-3.348-0.62-4.525-1.861c-1.228-1.29-1.842-2.971-1.842-5.042
		c0-1.938,0.719-3.605,2.162-5c1.437-1.396,3.18-2.093,5.23-2.093c2.183,0,3.933,0.648,5.244,1.953
		C716.345,260.76,717.071,262.811,717.071,265.48z M713.758,264.456c0-1.353-0.37-2.504-1.116-3.466
		c-0.781-0.99-1.778-1.485-2.991-1.485c-1.283,0-2.309,0.502-3.076,1.506c-0.704,0.935-1.06,2.078-1.06,3.445
		c0,1.325,0.349,2.434,1.039,3.313c0.774,0.983,1.827,1.472,3.166,1.472c1.206,0,2.176-0.461,2.922-1.367
		C713.388,266.959,713.758,265.822,713.758,264.456z"/>
	<path fill="#FFFFFF" d="M734.902,272.998c0,2.037-0.802,3.759-2.42,5.161c-1.499,1.311-3.2,1.974-5.098,1.974
		c-2.225,0-4.01-0.739-5.362-2.218c-1.354-1.479-2.029-3.424-2.029-5.844c0-3.452,1.227-6.591,3.668-9.422
		c2.371-2.74,5.174-4.414,8.417-5.027l1.395-0.259v2.064c-0.893,0.16-1.701,0.384-2.413,0.662c-0.711,0.279-1.479,0.684-2.294,1.221
		c-1.123,0.719-2.058,1.507-2.804,2.351c-0.753,0.851-1.304,1.743-1.666,2.678l-0.523,1.317l1.116-0.648
		c0.536-0.313,1.115-0.544,1.736-0.704c0.62-0.153,1.234-0.229,1.854-0.229c1.876,0,3.396,0.585,4.561,1.75
		C734.282,269.079,734.902,270.802,734.902,272.998z M731.631,272.998c0-1.353-0.363-2.469-1.081-3.347
		c-0.781-0.956-1.848-1.437-3.2-1.437c-1.283,0-2.302,0.522-3.055,1.562c-0.656,0.921-0.983,1.995-0.983,3.222
		c0,1.402,0.384,2.588,1.157,3.557c0.774,0.97,1.736,1.451,2.881,1.451c1.311,0,2.37-0.51,3.158-1.527
		C731.254,275.537,731.631,274.379,731.631,272.998z"/>
	<path fill="#FFFFFF" d="M752.064,260.153l-11.207,19.86l-2.824-0.669l11.095-19.282h-10.425v-2.343h13.361V260.153z"/>
</g>
</svg>
