<?xml version="1.0" encoding="utf-8"?>
<!-- Generator: Adobe Illustrator 16.0.0, SVG Export Plug-In . SVG Version: 6.00 Build 0)  -->
<!DOCTYPE svg PUBLIC "-//W3C//DTD SVG 1.1//EN" "http://www.w3.org/Graphics/SVG/1.1/DTD/svg11.dtd">
<svg version="1.1" id="Layer_1" xmlns="http://www.w3.org/2000/svg" xmlns:xlink="http://www.w3.org/1999/xlink" x="0px" y="0px"
	 width="23.887px" height="23.506px" viewBox="0 0 23.887 23.506" enable-background="new 0 0 23.887 23.506" xml:space="preserve">
<g>
	<path fill="#F9F9FA" d="M18.563,4.215L14.982,0.62l-0.44-0.443h-0.625H1.709H0.206V1.68v20.152v1.505h1.503h15.789h1.503v-1.505
		V5.275v-0.62L18.563,4.215z M14.664,2.43l2.085,2.094h-2.691L14.664,2.43z M1.709,21.832V1.68h11.606l-1.258,4.347h5.44v15.805
		H1.709z"/>
	<path fill="#F9F9FA" d="M15.152,7.102H4.055c-0.415,0-0.752,0.336-0.752,0.752c0,0.414,0.337,0.752,0.752,0.752h11.097
		c0.415,0,0.752-0.338,0.752-0.752C15.904,7.438,15.567,7.102,15.152,7.102z"/>
	<path fill="#F9F9FA" d="M15.152,9.797H4.055c-0.415,0-0.752,0.338-0.752,0.752c0,0.416,0.337,0.751,0.752,0.751h11.097
		c0.415,0,0.752-0.335,0.752-0.751C15.904,10.135,15.567,9.797,15.152,9.797z"/>
	<path fill="#F9F9FA" d="M15.152,12.494H4.055c-0.415,0-0.752,0.337-0.752,0.751c0,0.416,0.337,0.752,0.752,0.752h11.097
		c0.415,0,0.752-0.336,0.752-0.752C15.904,12.831,15.567,12.494,15.152,12.494z"/>
	<path fill="#F9F9FA" d="M15.152,15.19H4.055c-0.415,0-0.752,0.338-0.752,0.752c0,0.416,0.337,0.752,0.752,0.752h11.097
		c0.415,0,0.752-0.336,0.752-0.752C15.904,15.528,15.567,15.19,15.152,15.19z"/>
</g>
</svg>
