<?xml version="1.0" encoding="utf-8"?>
<!-- Generator: Adobe Illustrator 23.0.2, SVG Export Plug-In . SVG Version: 6.00 Build 0)  -->
<svg version="1.0" id="Layer_1" xmlns="http://www.w3.org/2000/svg" xmlns:xlink="http://www.w3.org/1999/xlink" x="0px" y="0px"
	 width="968.2px" height="143.5px" viewBox="0 0 968.2 143.5" style="enable-background:new 0 0 968.2 143.5;" xml:space="preserve"
	>
<style type="text/css">
	.st0{fill:#636467;}
	.st1{fill:#1B3765;}
	.st2{fill:#005835;}
	.st3{fill:#8F1C2C;}
	.st4{fill:#E5B721;}
	.st5{fill:#FDEA92;}
	.st6{fill:#4E4D50;}
	.st7{fill:#231F20;}
	.st8{fill:#FFFFFF;}
	.st9{fill:#FFFDFE;}
</style>
<g>
	<path class="st0" d="M55.2,121.5l-0.4-0.1c-0.1-0.1-0.3-0.1-0.5-0.2c-0.7-0.3-1.6-0.7-2.7-1.2c-1.1-0.6-3-1.6-5.6-3.1
		c-2.6-1.6-5.2-3.2-7.6-4.9c-2.4-1.7-5.1-3.9-8-6.5c-2.8-2.6-5.4-5.3-7.5-8.2c-2.2-2.9-4-6.1-5.5-9.8c-1.5-3.7-2.2-7.5-2.2-11.4
		V28.9c0-1.7,0.7-3.2,1.8-4.5c1.2-1.2,2.8-1.8,4.5-1.8h70.9c1.7,0,3.2,0.6,4.4,1.8c1.2,1.3,1.9,2.8,1.9,4.5v47.2
		c0,3.8-0.8,7.6-2.3,11.4c-1.4,3.7-3.2,7-5.4,9.8c-2.2,2.8-4.7,5.6-7.6,8.2c-2.8,2.6-5.6,4.8-8.1,6.5c-2.4,1.7-4.9,3.4-7.5,4.9
		c-2.6,1.5-4.5,2.5-5.7,3.1c-1.1,0.5-2,0.9-2.7,1.2c-0.1,0.1-0.3,0.1-0.5,0.2l-0.4,0.1h-0.5H55.2z"/>
	<path class="st1" d="M55.7,49.6V24.7H21.2c-1,0-2,0.4-2.7,1.2c-0.8,0.8-1.2,1.7-1.2,2.8v21H55.7z"/>
	<path class="st2" d="M17.3,52.1v24c0,3.5,0.7,7.1,2.1,10.5c1.3,3.5,3.1,6.6,5.1,9.3c2.1,2.7,4.5,5.3,7.4,7.9
		c2.8,2.5,5.4,4.7,7.8,6.3c2.4,1.7,4.9,3.3,7.5,4.8c2.5,1.5,4.4,2.5,5.5,3.1c1.1,0.5,2,0.9,2.6,1.2c0.1,0,0.2,0.1,0.4,0.1V52.1H17.3
		z"/>
	<path class="st3" d="M96.5,49.6v-21c0-1-0.4-2-1.2-2.8c-0.8-0.8-1.7-1.2-2.8-1.2H58.2v24.9C58.2,49.6,96.5,49.6,96.5,49.6z"/>
	<path class="st1" d="M58.2,52.1v67.3c0.1-0.1,0.2-0.1,0.3-0.1c0.7-0.3,1.5-0.7,2.6-1.2c1.1-0.6,3-1.6,5.6-3.1
		c2.5-1.5,5.1-3.1,7.4-4.8c2.4-1.7,5-3.8,7.8-6.3c2.8-2.6,5.3-5.2,7.3-7.9c2.1-2.7,3.8-5.8,5.1-9.3c1.4-3.4,2.1-7,2.1-10.5v-24H58.2
		z"/>
	<path class="st4" d="M91.8,48.9L91.8,48.9L91.8,48.9H58.8V29.3l0,0l0,0c0-3.1,1.9-4.6,1.9-4.6h-7.5c0,0,1.9,1.5,1.9,4.6l0,0v19.7
		H21.9l0,0l0,0c-3.1,0-4.6-1.8-4.6-1.8v7.6c0,0,1.5-1.9,4.6-1.9l0,0l0,0H55v62l0,0c0,1.9-0.3,3.1-1,3.9c0.5,0.3,0.9,0.4,1.3,0.6
		c0.1,0,0.2,0.1,0.4,0.1l0,0l0,0h2.5l0,0c0.1-0.1,0.2-0.1,0.3-0.1c0.4-0.1,0.8-0.3,1.3-0.6c-0.8-0.7-1-2-1-3.9l0,0v-62h33.1l0,0
		c3.1,0,4.6,1.9,4.6,1.9v-7.6C96.5,47.1,95,48.9,91.8,48.9"/>
	<path class="st5" d="M36.5,44.8L36.5,44.8c-0.6,0-1.1-0.4-1.5-0.7c-0.1-0.1-0.2-0.2-0.3-0.2c-2.1-1.1-6.4-0.5-6.4-0.5
		c-0.2,0-0.3,0-0.4-0.1c-0.1-0.1-0.2-0.2-0.2-0.3v-11c0-0.1,0.1-0.3,0.2-0.4c0-0.1,0.2-0.1,0.4-0.1c0.7,0.2,1.8,0.4,2.2,0.4
		c0.3,0,0.4,0.3,0.4,0.5c0,0.3-0.2,0.5-0.5,0.4c-0.3,0-1.1-0.2-1.8-0.3v9.8c1.4-0.1,4.6-0.3,6.5,0.7c0.2,0.1,0.3,0.2,0.5,0.4
		c0.3,0.2,0.6,0.5,0.8,0.5c0.3,0,0.6-0.3,0.9-0.5c0.1-0.1,0.3-0.3,0.5-0.4c1.9-1,5.1-0.8,6.5-0.7v-9.9l-1.7,0.4
		c-0.3,0.1-0.5-0.1-0.6-0.3c0-0.3,0.1-0.6,0.4-0.6l2.3-0.5c0.1,0,0.2,0,0.4,0.1c0.1,0.1,0.2,0.2,0.2,0.4v11.1c0,0.1,0,0.3-0.2,0.3
		c-0.1,0.1-0.2,0.1-0.3,0.1c0,0-4.3-0.6-6.5,0.5c0,0-0.1,0.1-0.3,0.3C37.6,44.4,37.1,44.8,36.5,44.8"/>
	<path class="st5" d="M36.1,42.4L36.1,42.4c-1.7-0.9-4.1-1.1-5.3-1.1h-0.6V30.8c0-0.8,0.5-1.3,1.3-1.3c1.4,0,4.1,1.7,4.9,2.4
		c0.8-0.7,3.6-2.3,5-2.3c0.8,0,1.2,0.5,1.2,1.2v10.5h-0.5c-1.3,0-3.7,0.1-5.3,1l-0.1,0.1l-0.3,0.1L36.1,42.4z M37.1,32.6l0,0.2v8.3
		c1.5-0.6,3.2-0.8,4.5-0.8v-9.6c0-0.2,0-0.2-0.2-0.2C40.3,30.6,37.8,32.2,37.1,32.6 M31.2,40.4c1.4,0,3.2,0.2,4.5,0.8v-8.6
		c-0.7-0.5-3.1-2.1-4.2-2.1c-0.2,0-0.3,0-0.3,0.4L31.2,40.4L31.2,40.4z"/>
	<path class="st5" d="M45.9,74.7L43,77.6l0.9,0.3c-1.4,2.1-3.7,3-6.3,3.2V70.3h2.4c0.2,0.2,0.5,0.3,0.8,0.3c0.6,0,1.2-0.5,1.2-1.1
		c0-0.6-0.6-1.1-1.2-1.1c-0.3,0-0.6,0.1-0.8,0.3h-2.4v-1.3c1.1-0.4,2-1.6,2-3c0-1.8-1.4-3.2-3.2-3.2c-1.8,0-3.3,1.4-3.3,3.2
		c0,1.5,1,2.7,2.4,3.1v1.2h-2.7c-0.2-0.2-0.5-0.3-0.8-0.3c-0.7,0-1.1,0.5-1.1,1.1c0,0.7,0.5,1.1,1.1,1.1c0.3,0,0.6-0.1,0.8-0.3h2.7
		v10.8c-2.8-0.2-5.3-1.3-6.5-3.6l0.9-0.2l-2.8-3L26,78.2l1-0.2c1.6,3.3,5,6.1,9,6.3l0.6,2.2l0.6-2.2c3.8-0.2,7.1-2.7,8.7-5.8l1,0.3
		L45.9,74.7z M36.5,66.1c-0.9,0-1.6-0.8-1.6-1.7c0-0.9,0.7-1.7,1.6-1.7c0.9,0,1.7,0.7,1.7,1.7C38.2,65.3,37.4,66.1,36.5,66.1"/>
	<path class="st6" d="M82.5,115.3c6.5,1.6,12.8,3.6,18.9,6.2c-0.6-2.7-1-4-1.8-6.7c2.5-1.4,3.8-2.1,6.4-3.4
		c-6.8-2.8-13.7-5-20.8-6.8C84.2,108.2,83.3,111.7,82.5,115.3"/>
	<polygon class="st7" points="96.4,113.7 82.5,115.3 85.1,104.3 100.3,103.7 	"/>
	<path class="st6" d="M31.3,115.4c-6.5,1.6-12.7,3.6-18.9,6.2c0.7-2.7,1-4,1.9-6.7c-2.5-1.4-3.8-2.1-6.4-3.4
		c6.8-2.8,13.7-5,20.8-6.7C29.5,108.2,30.4,111.8,31.3,115.4"/>
	<polygon class="st7" points="17.3,113.7 31.3,115.4 28.6,104.3 13.4,103.7 	"/>
	<path class="st0" d="M100.3,103.7C86,96.2,71.5,92.5,56.9,92.5l0,0h0c-0.2,0-0.3,0-0.3,0h-0.1c-14.2,0.2-28.5,4-43,11.1
		c1.3,3.3,2.5,6.6,3.9,10c16.2-6.6,27.9-10,39.4-10c11.9,0,23.6,3.4,39.7,10C97.7,110.3,99,107,100.3,103.7"/>
	<polygon class="st4" points="70.8,98.1 71.1,98.8 71.6,98.4 71.3,99.1 72.2,99.1 71.5,99.6 72.2,100 71.3,100 71.6,100.8 71,100.3 
		70.8,101 70.5,100.3 69.9,100.8 70.1,100 69.4,100 70,99.5 69.4,99.1 70.2,99.1 69.9,98.3 70.5,98.8 	"/>
	<polygon class="st4" points="40.3,98.1 40.5,98.8 41.1,98.4 40.9,99.1 41.6,99.1 41,99.6 41.6,100 40.8,100 41.1,100.8 40.5,100.3 
		40.2,101 40,100.3 39.3,100.8 39.6,100 38.9,100 39.5,99.5 38.9,99.1 39.6,99.1 39.4,98.3 40.1,98.8 	"/>
	<path class="st5" d="M80.8,29.3l-0.8,1c2.8,2.1,3.3,6,1.2,8.7c-0.9,1.4-2.4,2.2-4.1,2.4c-1.6,0.2-3.3-0.2-4.6-1.2l-0.8,1
		c1.3,1,2.9,1.5,4.4,1.5h0v0.9h-2.1V45h5.5v-1.4h-2.1v-1c1.9-0.3,3.6-1.3,4.7-2.9C84.7,36.4,84.1,31.8,80.8,29.3"/>
	<path class="st5" d="M72.8,33.6c0.5,0.6,0.7,1.8,1.5,2c0.4,0.1,0.4,0.1,0.3-0.3c0-0.2,0-0.4,0-0.6c0-0.6-0.6-1.1-0.4-1.7
		c0.1-0.7,0.8-0.9,0.6-1.7c0-0.4-0.1-0.9-0.2-1.3c-1,0.3-1.8,1-2.5,1.8c-0.1,0.3-0.4,0.6-0.6,0.8C72,32.8,72.4,33.1,72.8,33.6"/>
	<path class="st5" d="M73,39.6c2.5,1.8,5.9,1.3,7.7-1.1c0.1-0.2,0.3-0.4,0.4-0.6c-0.6-0.3-1.2-0.8-1.7-1.2c-0.6-0.5-1.5-1.2-1.6-2
		c0-1,0.7-1.4,1.5-1.3c0.9,0.1,0.7-0.4,1.1-0.9c0.2-0.2,0.3-0.3,0.4-0.4c-0.4-0.5-0.7-0.9-1.2-1.2c-1.3-1-2.8-1.3-4.3-1
		c0,0.8,0.3,1.5,0.3,2.4c-0.1,0.8-0.8,0.9-0.4,1.8c0.3,0.6,0.5,2-0.1,2.5c-0.8,0.6-2-0.4-2.3-1.1c-0.5-0.8-0.8-1.7-1.7-1.8
		C70.4,35.8,71.1,38.2,73,39.6"/>
	<path class="st5" d="M78.9,34.9c0.5,0.8,1.6,1.7,2.6,2.2c0.5-1.4,0.4-3-0.3-4.3c-0.4,0.4-0.3,1.2-0.9,1.4
		C79.9,34.4,78.4,34.2,78.9,34.9"/>
	<path class="st8" d="M20.3,107.3l0.9-0.5c0.4,0.7,0.8,0.9,1.5,0.7c0.2-0.1,0.4-0.3,0.6-0.5c0-0.2,0-0.4,0-0.6
		c0-0.1-0.1-0.2-0.2-0.3c-0.1-0.1-0.2-0.1-0.4-0.1c-0.1,0-0.4,0-0.9,0c-0.5,0-0.8,0-1.1,0c-0.2,0-0.4-0.2-0.7-0.4
		c-0.2-0.2-0.3-0.4-0.4-0.7c-0.1-0.3-0.1-0.6-0.1-0.9c0-0.3,0.1-0.5,0.3-0.8c0.2-0.2,0.5-0.4,0.9-0.5c0.5-0.2,1-0.2,1.4-0.1
		c0.4,0.2,0.8,0.6,1,1.1l-0.9,0.4c-0.1-0.3-0.3-0.5-0.5-0.6c-0.2,0-0.4,0-0.7,0.1c-0.3,0.1-0.4,0.2-0.5,0.4c-0.1,0.2-0.1,0.3,0,0.5
		c0,0.1,0.1,0.2,0.3,0.3c0.1,0.1,0.5,0.1,0.9,0c0.6-0.1,0.9-0.1,1.2,0.1c0.3,0,0.5,0.2,0.7,0.4c0.2,0.2,0.3,0.4,0.5,0.8
		c0.2,0.5,0.2,1,0,1.4c-0.2,0.5-0.6,0.8-1.3,1.1C21.9,108.9,21,108.5,20.3,107.3"/>
	<polygon class="st8" points="25.5,107.3 23.6,101.6 27,100.5 27.3,101.4 24.8,102.3 25.3,103.5 27.6,102.7 27.9,103.7 25.6,104.5 
		26.1,106 28.7,105.1 29,106.1 	"/>
	<polygon class="st8" points="29.8,105.8 28.1,100.1 31.6,99.1 31.9,100 29.4,100.8 29.7,102.1 32.1,101.4 32.4,102.3 30,103 
		30.5,104.6 33.1,103.8 33.4,104.8 	"/>
	<polygon class="st8" points="34.1,104.6 32.7,98.8 33.6,98.5 34.3,101.1 35.6,98.1 36.8,97.7 35.6,100.4 38.5,103.5 37.2,103.8 
		35.2,101.4 34.6,102.6 35.1,104.3 	"/>
	<path class="st8" d="M43.9,100.4l0.9-0.3c0.2,0.8,0.7,1.1,1.2,1c0.3,0,0.6-0.1,0.7-0.3c0.2-0.2,0.2-0.4,0.2-0.6
		c0-0.1-0.1-0.2-0.1-0.3c-0.1-0.1-0.1-0.1-0.3-0.2c-0.1-0.1-0.4-0.1-0.9-0.2c-0.5,0-0.8-0.1-1-0.3c-0.2-0.1-0.4-0.3-0.5-0.5
		c-0.2-0.2-0.3-0.4-0.3-0.8c-0.1-0.3-0.1-0.6,0-0.9c0.1-0.3,0.3-0.5,0.5-0.7c0.2-0.2,0.5-0.3,0.9-0.3c0.6-0.1,1,0,1.4,0.3
		c0.4,0.3,0.6,0.7,0.7,1.2l-1,0.2c-0.1-0.3-0.2-0.5-0.4-0.6C45.9,97,45.6,97,45.4,97c-0.3,0-0.5,0.1-0.6,0.2
		c-0.1,0.2-0.2,0.3-0.1,0.5c0,0.2,0,0.3,0.2,0.4c0.1,0.1,0.5,0.2,1,0.2c0.5,0.1,0.8,0.2,1.1,0.3c0.2,0.1,0.4,0.3,0.6,0.5
		c0.1,0.2,0.2,0.5,0.2,0.9c0.1,0.5,0,0.9-0.2,1.4c-0.3,0.4-0.7,0.6-1.4,0.7C45,102.3,44.2,101.8,43.9,100.4"/>
	<polygon class="st8" points="48.9,101.6 48.2,95.7 49.2,95.6 49.5,97.9 51.4,97.7 51.2,95.4 52.2,95.3 52.8,101.2 51.8,101.3 
		51.5,98.7 49.6,99 49.9,101.6 	"/>
	<path class="st8" d="M58.1,101.1H57l-0.4-1.4l-2,0l-0.4,1.4h-1l1.8-6l1,0L58.1,101.1z M56.2,98.8l-0.7-2.2l-0.6,2.2H56.2z"/>
	<path class="st8" d="M58.6,101.1l0.3-6l2.1,0.1c0.5,0.1,0.9,0.1,1.1,0.2c0.2,0.1,0.4,0.3,0.6,0.6c0.1,0.3,0.1,0.6,0.1,1
		c0,0.5-0.1,0.8-0.4,1.1c-0.3,0.3-0.6,0.4-1,0.5c0.2,0.1,0.4,0.3,0.6,0.5c0.1,0.2,0.2,0.5,0.5,1l0.6,1.2l-1.3,0l-0.6-1.4
		c-0.3-0.5-0.5-0.8-0.5-0.9c-0.1-0.1-0.2-0.2-0.3-0.3c0,0-0.2-0.1-0.5-0.1l-0.1,0l-0.1,2.5L58.6,101.1z M59.7,97.7l0.8,0
		c0.4,0,0.8,0,0.9,0c0.1,0,0.2-0.1,0.3-0.2c0-0.1,0.1-0.3,0.1-0.5s0-0.4,0-0.5c-0.1-0.1-0.1-0.2-0.3-0.2c-0.1,0-0.3,0-0.8-0.1
		l-0.8,0L59.7,97.7z"/>
	<polygon class="st8" points="63.4,101.4 64.1,95.5 67.7,95.8 67.6,96.8 64.9,96.6 64.8,97.9 67.2,98.1 67.2,99.1 64.7,98.9 
		64.5,100.5 67.2,100.8 67.2,101.8 	"/>
	<path class="st8" d="M73.7,100.9l0.9,0.1c-0.1,0.8,0.2,1.2,0.7,1.4c0.3,0.1,0.6,0.1,0.8,0c0.2-0.1,0.4-0.3,0.5-0.5
		c0-0.1,0-0.2,0-0.3c-0.1-0.1-0.1-0.2-0.3-0.3c-0.1-0.1-0.3-0.3-0.8-0.5c-0.4-0.3-0.7-0.4-0.8-0.6c-0.1-0.2-0.2-0.4-0.2-0.7
		c0-0.3,0-0.5,0-0.8c0.1-0.3,0.2-0.6,0.4-0.8c0.2-0.2,0.4-0.4,0.8-0.5c0.3-0.1,0.6-0.1,1,0.1c0.5,0.1,0.9,0.4,1.2,0.8
		c0.2,0.4,0.3,0.9,0.1,1.5L77,99.5c0-0.3,0-0.6,0-0.8c-0.2-0.1-0.3-0.3-0.6-0.3c-0.3-0.1-0.5-0.1-0.7,0c-0.1,0.1-0.3,0.2-0.3,0.4
		c0,0.1,0,0.3,0.2,0.4c0,0.1,0.3,0.4,0.8,0.6c0.4,0.3,0.8,0.5,0.9,0.7c0.2,0.2,0.3,0.4,0.3,0.7c0,0.2,0,0.6,0,0.9
		c-0.1,0.5-0.4,0.9-0.8,1.2c-0.4,0.2-0.9,0.3-1.6,0.1C73.9,103.2,73.4,102.3,73.7,100.9"/>
	<polygon class="st8" points="77.8,104.1 79.4,98.3 83,99.3 82.7,100.3 80.1,99.6 79.7,100.9 82.1,101.6 81.9,102.5 79.5,101.8 
		79,103.4 81.7,104.1 81.4,105.1 	"/>
	<path class="st8" d="M82.2,105.4l1.8-5.7l2,0.6c0.5,0.1,0.9,0.3,1,0.5c0.2,0.1,0.3,0.4,0.4,0.7c0,0.3,0,0.6-0.1,0.9
		c-0.1,0.5-0.4,0.8-0.7,1c-0.2,0.2-0.7,0.3-1.1,0.2c0.2,0.2,0.3,0.4,0.4,0.6c0,0.2,0.1,0.6,0.2,1.1l0.2,1.3l-1.2-0.4l-0.2-1.5
		c-0.1-0.5-0.2-0.9-0.2-1c-0.1-0.1-0.1-0.2-0.2-0.3c-0.1,0-0.2-0.1-0.5-0.2l-0.1-0.1l-0.8,2.4L82.2,105.4z M84.2,102.4l0.7,0.2
		c0.5,0.1,0.7,0.2,0.9,0.2c0,0,0.2,0,0.3-0.1c0.1,0,0.2-0.2,0.2-0.4c0.1-0.2,0.1-0.3,0.1-0.4c-0.1-0.1-0.2-0.3-0.2-0.3
		c-0.1-0.1-0.4-0.2-0.8-0.3l-0.8-0.2L84.2,102.4z"/>
	<polygon class="st8" points="87.9,107.3 88.3,101 89.3,101.4 89,105.9 91.6,102.2 92.6,102.5 88.9,107.6 	"/>
	<polygon class="st8" points="91,108.4 93.3,102.8 96.7,104.2 96.2,105.2 93.8,104.1 93.3,105.4 95.6,106.3 95.1,107.3 92.9,106.3 
		92.3,107.8 94.9,108.9 94.4,109.8 	"/>
	<path class="st5" d="M80.6,65.6c0.1,0.6,1.1,3-1.2,2.1c-2.2-0.8-2.1-6.5-1.2-8.1c-1.4,0.5-2.4,4.1-2.4,4.1l0,0c0-0.1,0-0.1-0.1-0.2
		c0-0.3-0.2-0.4-0.4-0.6c-0.1-0.2-0.2-0.3-0.4-0.4c-0.1-0.1-0.2-0.1-0.3-0.1c0,0,0,0,0,0h0c0,0,0,0,0,0c0,0,0,0,0,0
		c0,0,0.2,0.1,0.2,0.2c0.1,0.2,0.3,0.6,0.3,1c0,0.2,0,0.4,0,0.7c0,0.3,0,0.5-0.1,0.8c-0.1,0.3-0.2,0.5-0.3,0.8
		c0,0.1-0.2,0.2-0.2,0.4l0,0.2l-0.1,0.1c0-0.1,0-0.1,0-0.1c0.1-0.3,0.1-0.6,0.1-0.8c0-0.2-0.1-0.5-0.1-0.7c-0.1-0.2-0.2-0.3-0.3-0.5
		c-0.1-0.1-0.2-0.2-0.3-0.2c0-0.1-0.1-0.1-0.1-0.1s0,0,0.1,0.1c0,0,0,0.2,0,0.3c0,0.1,0,0.3,0,0.4c0,0.2,0,0.4,0,0.5
		c-0.1,0.4-0.3,0.9-0.5,1.3c-0.1,0.2-0.2,0.5-0.4,0.8c-0.2,0.2-0.3,0.5-0.4,0.8c0,0.1-0.1,0.3-0.2,0.5c0,0.1,0,0.3,0,0.5
		c0,0.2,0,0.4,0,0.5c0,0.2,0,0.4,0.1,0.5c0.2,0.6,0.7,1.1,1,1.4c0.2,0.1,0.4,0.3,0.6,0.3c0.2,0.1,0.4,0.1,0.5,0.1c0.1,0,0.2,0,0.3,0
		c0,0,0.1,0,0.1,0s-0.1,0-0.2-0.1c0,0,0,0,0-0.1c0,0-0.1,0-0.2-0.1c-0.2-0.1-0.5-0.3-0.8-0.6c-0.2-0.4-0.4-0.8-0.5-1.2
		c0-0.2,0-0.4,0-0.7c0-0.1,0-0.2,0-0.3c0,0,0-0.1,0-0.2c0,0,0-0.1,0.1-0.1c0,0.1,0,0.1,0,0.1c0,0.2,0,0.4,0,0.5
		c0,0.3,0.2,0.6,0.3,0.8c0.1,0.1,0.2,0.2,0.3,0.3c0,0,0.1,0.1,0.1,0.1c0,0,0.1,0.1,0.1,0.1c0,0.1,0.2,0.1,0.2,0.2c0.1,0,0.2,0,0.2,0
		c0.2,0.1,0.3,0.1,0.4,0.1c0.1,0,0.1,0,0.1,0s0-0.1-0.1-0.1c0,0,0,0-0.1-0.1c0,0,0-0.1-0.1-0.1c0,0-0.1-0.1-0.2-0.1
		c0,0-0.1-0.1-0.1-0.2c0-0.1,0-0.1,0-0.1c0,0,0-0.1-0.1-0.1c0-0.1,0-0.2-0.1-0.3c0-0.2-0.1-0.4-0.1-0.7c0-0.1,0-0.2,0-0.3
		c0-0.1,0-0.1,0-0.2l0-0.2c0,0,0-0.1,0-0.2c0-0.1,0-0.1,0-0.2c0.1-0.1,0.1-0.2,0.2-0.4c0-0.1,0.1-0.3,0.2-0.4c0,0,0,0,0,0
		c-0.1,0.8,0,2.1,1.7,2.6c-1.7-3.3-0.1-5.8-0.1-5.8s0.5,5.6,4.4,4.8c0.3,2.4-2.5,3.3-2.5,3.3s3.7-0.1,3.8-2.9
		C82.3,67.5,81.2,66.3,80.6,65.6"/>
	<polygon class="st5" points="75.1,85.2 79.2,85.2 81.2,73.3 72.8,73.3 	"/>
</g>
<g>
	<g>
		<path class="st9" d="M160.4,67.1l-6,0l-4.2-11.9h-15.6l-4.3,11.9l-4.9,0L141.4,27h3.7L160.4,67.1z M148.7,51.2L142.6,34L136,51.2
			H148.7z"/>
		<path class="st9" d="M187.9,67.1h-22.5V27h5.8v36.1h16.7V67.1z"/>
		<path class="st9" d="M217.3,36.6c0.1,0.6,0.1,1.2,0.1,1.9c0,3.5-1.4,6.6-4.2,9.1c-2.8,2.6-6.2,3.8-10.1,3.8h-1v-3.6l0.9,0
			c2.5,0,4.5-0.7,6-2.2c1.7-1.6,2.5-3.9,2.5-6.9c0-2.7-0.8-4.7-2.3-6c-1.3-1.1-3.2-1.7-5.5-1.7h-4.2v36.1h-5.8V27h11.4
			c3.2,0,5.9,0.7,7.9,2.2C215.4,30.8,216.8,33.3,217.3,36.6z"/>
		<path class="st9" d="M253,67.1h-5.8V47h-19.1v20h-5.9V27h5.9v16h19.1V27h5.8V67.1z"/>
		<path class="st9" d="M292.4,67.1l-6,0l-4.2-11.9h-15.6l-4.3,11.9l-4.9,0L273.4,27h3.7L292.4,67.1z M280.7,51.2L274.6,34L268,51.2
			H280.7z"/>
		<path class="st9" d="M346.7,64.9l-2.8,0.9c-1.9,0.7-4.2,1.1-6.9,1.5c-2.1,0.2-4.2,0.4-6.2,0.4c-5.5,0-10.1-1.9-13.9-5.7
			c-3.8-3.8-5.7-8.6-5.7-14.4c0-5.9,2-10.9,5.9-15c3.9-4.1,8.8-6.1,14.8-6.1c2.6,0,4.9,0.2,6.8,0.5s3.7,1,5.4,1.9l2.2,1.2l-2.3,3.3
			l-2.4-1.4c-0.8-0.4-1.9-0.8-3.4-1.2c-1.5-0.3-3.1-0.5-4.7-0.5c-0.7,0-1.3,0-2,0.1c-4.5,0.5-8,2.4-10.4,5.5
			c-2.5,3.1-3.7,7-3.7,11.8c0,4.4,1.4,8.1,4.1,11.2c2.7,3.1,6.2,4.7,10.3,4.7c3.6,0,6.3-0.3,8.1-0.9l1.3-0.4V48.7h5.6L346.7,64.9
			L346.7,64.9z"/>
		<path class="st9" d="M379.5,66l-5.6,1.8l-9.4-17.3l-5.9,0v16.6h-5.5V27h12.1c3,0,5.4,0.8,7.4,2.4c1.8,1.5,2.9,3.4,3.3,5.7
			c0.1,0.8,0.2,1.6,0.2,2.4c0,2.1-0.4,4-1.3,5.8c-0.9,1.8-2.2,3.3-4,4.7l-1.4,1L379.5,66z M370.3,37.5c0-2.1-0.6-3.8-1.9-4.9
			c-1.3-1.1-3-1.7-5.4-1.7h-4.4v15.6h3.8c2.3,0,4.1-0.8,5.6-2.4C369.6,42.4,370.3,40.2,370.3,37.5z"/>
		<path class="st9" d="M424.2,46.9c0,5.9-1.8,10.8-5.5,14.7c-3.8,4.1-8.7,6.1-14.7,6.1c-5.7,0-10.5-2-14.3-6c-3.8-4-5.7-9-5.7-14.8
			c0-5.5,1.9-10.3,5.7-14.4c3.8-4.1,8.4-6.1,13.7-6.1c6.3,0,11.4,2,15.2,5.9C422.4,36.1,424.2,40.9,424.2,46.9z M417.9,46.9
			c0-4.7-1.1-8.4-3.3-11.4c-2.5-3.4-6.2-5.1-11.1-5.1c-4.2,0-7.5,1.7-10,5.1c-2.3,3.1-3.4,6.9-3.4,11.4c0,4.8,1.3,8.8,3.8,12
			c2.6,3.2,5.9,4.8,10,4.8c4.2,0,7.5-1.5,10.1-4.6C416.7,56,417.9,51.9,417.9,46.9z"/>
		<path class="st9" d="M461.3,52.8c0,2.5-0.4,4.6-1.2,6.5c-0.8,1.8-2.1,3.6-3.9,5.2c-1.1,1-2.7,1.8-4.6,2.5c-1.9,0.6-3.9,0.9-6,0.9
			c-1.6,0-3.1-0.2-4.6-0.5c-1.5-0.4-2.9-0.9-4.2-1.7c-2.4-1.4-4.1-3.2-5.2-5.6c-0.9-2.1-1.4-4.7-1.4-7.8V27h5.7v24.8
			c0,2.2,0.3,4.2,0.8,5.8c0.7,2.2,2,3.8,3.7,4.8c1.7,1,3.6,1.4,5.6,1.4c1.3,0,2.6-0.2,3.9-0.7c1.3-0.4,2.4-1.1,3.3-1.9
			c1.1-1,1.9-2.4,2.3-4.1c0.3-1.4,0.5-3.2,0.5-5.5V27h5.3L461.3,52.8L461.3,52.8z"/>
		<path class="st9" d="M491.3,36.6c0.1,0.6,0.1,1.2,0.1,1.9c0,3.5-1.4,6.6-4.2,9.1c-2.8,2.6-6.2,3.8-10.1,3.8h-1v-3.6l0.9,0
			c2.5,0,4.5-0.7,6-2.2c1.7-1.6,2.5-3.9,2.5-6.9c0-2.7-0.8-4.7-2.3-6c-1.3-1.1-3.2-1.7-5.5-1.7h-4.2v36.1h-5.8V27h11.4
			c3.2,0,5.9,0.7,7.9,2.2C489.4,30.8,490.8,33.3,491.3,36.6z"/>
		<path class="st9" d="M550.6,46.9c0,5.9-1.8,10.8-5.5,14.7c-3.8,4.1-8.7,6.1-14.7,6.1c-5.7,0-10.5-2-14.3-6c-3.8-4-5.7-9-5.7-14.8
			c0-5.5,1.9-10.3,5.7-14.4c3.8-4.1,8.4-6.1,13.7-6.1c6.3,0,11.4,2,15.2,5.9C548.7,36.1,550.6,40.9,550.6,46.9z M544.3,46.9
			c0-4.7-1.1-8.4-3.3-11.4c-2.5-3.4-6.2-5.1-11.1-5.1c-4.2,0-7.5,1.7-10,5.1c-2.3,3.1-3.4,6.9-3.4,11.4c0,4.8,1.3,8.8,3.8,12
			c2.6,3.2,5.9,4.8,10,4.8c4.2,0,7.5-1.5,10.1-4.6C543,56,544.3,51.9,544.3,46.9z"/>
		<path class="st9" d="M577,30.9h-14.1v13.8h13.9v4h-13.9v18.3h-5.6V27H577V30.9z"/>
		<path class="st9" d="M603.4,67.1h-5.8V27h5.8V67.1z"/>
		<path class="st9" d="M642.3,67.2l-3.7,0l-23.7-31.1v31h-4.7V27h3.6l24,31.6V27h4.5L642.3,67.2L642.3,67.2z"/>
		<path class="st9" d="M672.6,58.3c-0.3,2.8-1.6,5-3.9,6.8c-2.3,1.8-5,2.7-8.1,2.7c-4.5,0-8.2-1-11.1-3l-1.2-0.8l2.6-3.6l2.2,1.3
			c0.9,0.6,2.1,1,3.3,1.4c1.3,0.4,2.5,0.6,3.7,0.6c1.6,0,3.1-0.4,4.3-1.3c1.2-0.9,2-2,2.2-3.6c0-0.2,0.1-0.5,0.1-0.7
			c0-0.2,0-0.5,0-0.7c0-1.4-0.4-2.7-1.2-3.9c-0.7-1-1.6-2-2.9-2.9c-1.3-1-2.5-2-3.7-2.9c-1.4-1-2.7-2-4-3.1
			c-1.5-1.3-2.7-2.5-3.4-3.6c-0.9-1.5-1.4-3.1-1.4-4.9c0-2.8,1.2-5.2,3.5-7c2.2-1.8,4.9-2.6,8-2.6c2,0,3.6,0.2,5,0.5
			c1.3,0.3,2.7,1,4.1,2l1.4,1l-2.9,3.2l-1.4-0.9c-0.9-0.6-1.9-1.1-2.8-1.3c-0.9-0.3-2.1-0.4-3.4-0.4c-1.5,0-2.8,0.5-3.9,1.5
			c-1.1,1-1.7,2.2-1.7,3.6c0,2,1.3,4,3.8,6c1.3,0.9,2.5,1.9,3.8,2.8c2.8,2.2,4.3,3.4,4.5,3.6c1.6,1.4,2.7,2.6,3.4,3.9
			c0.9,1.5,1.3,3.2,1.3,5.1c0,0.3,0,0.6,0,0.8C672.6,58,672.6,58.2,672.6,58.3z"/>
		<path class="st9" d="M709,31h-12.8v36.1h-5.6V31h-13v-4H709L709,31L709,31z"/>
		<path class="st9" d="M721.4,67.1h-5.8V27h5.8V67.1z"/>
		<path class="st9" d="M758.8,31H746v36.1h-5.6V31h-13v-4h31.3L758.8,31L758.8,31z"/>
		<path class="st9" d="M795,52.8c0,2.5-0.4,4.6-1.2,6.5c-0.8,1.8-2.1,3.6-3.9,5.2c-1.1,1-2.7,1.8-4.6,2.5c-1.9,0.6-3.9,0.9-6,0.9
			c-1.6,0-3.1-0.2-4.6-0.5c-1.5-0.4-2.9-0.9-4.2-1.7c-2.4-1.4-4.1-3.2-5.2-5.6c-0.9-2.1-1.4-4.7-1.4-7.8V27h5.7v24.8
			c0,2.2,0.3,4.2,0.8,5.8c0.7,2.2,2,3.8,3.7,4.8c1.7,1,3.6,1.4,5.6,1.4c1.3,0,2.6-0.2,3.9-0.7c1.3-0.4,2.4-1.1,3.3-1.9
			c1.1-1,1.9-2.4,2.3-4.1c0.3-1.4,0.5-3.2,0.5-5.5V27h5.3L795,52.8L795,52.8z"/>
		<path class="st9" d="M831.2,31h-12.8v36.1h-5.6V31h-13v-4h31.3L831.2,31L831.2,31z"/>
		<path class="st9" d="M843.6,67.1h-5.8V27h5.8V67.1z"/>
		<path class="st9" d="M890.6,46.9c0,5.9-1.8,10.8-5.5,14.7c-3.8,4.1-8.7,6.1-14.7,6.1c-5.7,0-10.5-2-14.3-6s-5.7-9-5.7-14.8
			c0-5.5,1.9-10.3,5.7-14.4c3.8-4.1,8.4-6.1,13.7-6.1c6.3,0,11.4,2,15.2,5.9C888.8,36.1,890.6,40.9,890.6,46.9z M884.3,46.9
			c0-4.7-1.1-8.4-3.3-11.4c-2.5-3.4-6.2-5.1-11.1-5.1c-4.2,0-7.5,1.7-10,5.1c-2.3,3.1-3.4,6.9-3.4,11.4c0,4.8,1.3,8.8,3.8,12
			c2.6,3.2,5.9,4.8,10,4.8c4.2,0,7.5-1.5,10.1-4.6C883,56,884.3,51.9,884.3,46.9z"/>
		<path class="st9" d="M928.7,67.2l-3.7,0l-23.7-31.1v31h-4.7V27h3.6l24,31.6V27h4.5L928.7,67.2L928.7,67.2z"/>
		<path class="st9" d="M958.9,58.3c-0.3,2.8-1.6,5-3.9,6.8c-2.3,1.8-5,2.7-8.1,2.7c-4.5,0-8.2-1-11.1-3l-1.2-0.8l2.6-3.6l2.2,1.3
			c0.9,0.6,2.1,1,3.3,1.4c1.3,0.4,2.5,0.6,3.7,0.6c1.6,0,3.1-0.4,4.3-1.3c1.2-0.9,2-2,2.2-3.6c0-0.2,0-0.5,0.1-0.7
			c0-0.2,0-0.5,0-0.7c0-1.4-0.4-2.7-1.2-3.9c-0.7-1-1.6-2-2.9-2.9c-1.3-1-2.5-2-3.7-2.9c-1.4-1-2.7-2-4-3.1
			c-1.5-1.3-2.7-2.5-3.4-3.6c-0.9-1.5-1.4-3.1-1.4-4.9c0-2.8,1.2-5.2,3.5-7c2.2-1.8,4.9-2.6,8-2.6c2,0,3.6,0.2,5,0.5
			c1.3,0.3,2.7,1,4.1,2l1.4,1l-2.9,3.2l-1.4-0.9c-0.9-0.6-1.9-1.1-2.8-1.3s-2.1-0.4-3.4-0.4c-1.5,0-2.8,0.5-3.9,1.5
			c-1.1,1-1.7,2.2-1.7,3.6c0,2,1.3,4,3.8,6c1.3,0.9,2.5,1.9,3.8,2.8c2.8,2.2,4.3,3.4,4.5,3.6c1.6,1.4,2.7,2.6,3.4,3.9
			c0.9,1.5,1.3,3.2,1.3,5.1c0,0.3,0,0.6,0,0.8C958.9,58,958.9,58.2,958.9,58.3z"/>
	</g>
</g>
<g>
	<path class="st8" d="M417.6,98.3V79.1h14.2v3.2h-10.4v4.3h9.6v3.2h-9.6V95h10.7v3.2L417.6,98.3L417.6,98.3z"/>
	<path class="st8" d="M434.5,92l3.8-0.4c0.2,1.3,0.7,2.2,1.4,2.8c0.7,0.6,1.6,0.9,2.8,0.9c1.2,0,2.2-0.3,2.8-0.8
		c0.6-0.5,0.9-1.1,0.9-1.9c0-0.5-0.1-0.8-0.4-1.2c-0.3-0.3-0.7-0.6-1.4-0.8c-0.5-0.2-1.5-0.4-3.1-0.8c-2.1-0.5-3.5-1.1-4.4-1.9
		c-1.2-1.1-1.8-2.3-1.8-3.9c0-1,0.3-1.9,0.8-2.7c0.6-0.9,1.4-1.5,2.4-1.9c1-0.4,2.3-0.7,3.8-0.7c2.4,0,4.2,0.5,5.4,1.6
		c1.2,1.1,1.9,2.5,1.9,4.2l-3.9,0.2c-0.2-1-0.5-1.7-1.1-2.1c-0.5-0.4-1.4-0.6-2.5-0.6c-1.1,0-2,0.2-2.6,0.7
		c-0.4,0.3-0.6,0.7-0.6,1.2c0,0.5,0.2,0.8,0.6,1.2c0.5,0.4,1.7,0.8,3.6,1.3c1.9,0.4,3.3,0.9,4.2,1.4c0.9,0.5,1.6,1.1,2.1,1.9
		c0.5,0.8,0.8,1.8,0.8,3.1c0,1.1-0.3,2.1-0.9,3.1c-0.6,1-1.5,1.7-2.6,2.1c-1.1,0.5-2.5,0.7-4.2,0.7c-2.4,0-4.3-0.6-5.6-1.7
		C435.5,95.8,434.8,94.2,434.5,92z"/>
	<path class="st8" d="M457.7,98.3V82.3H452v-3.2h15.2v3.2h-5.7v15.9L457.7,98.3L457.7,98.3z"/>
	<path class="st8" d="M485.1,98.3h-4.2l-1.7-4.4h-7.7l-1.6,4.4h-4.1l7.5-19.2h4.1L485.1,98.3z M477.9,90.7l-2.6-7.1l-2.6,7.1H477.9z
		"/>
	<path class="st8" d="M487.1,79.1h7.7c1.5,0,2.6,0.1,3.4,0.2c0.7,0.1,1.4,0.4,2,0.8c0.6,0.4,1.1,0.9,1.5,1.6s0.6,1.4,0.6,2.2
		c0,0.9-0.2,1.7-0.7,2.5c-0.5,0.8-1.1,1.3-2,1.7c1.2,0.3,2.1,0.9,2.7,1.7c0.6,0.8,0.9,1.8,0.9,2.9c0,0.9-0.2,1.7-0.6,2.5
		s-1,1.5-1.7,2c-0.7,0.5-1.6,0.8-2.6,0.9c-0.6,0.1-2.2,0.1-4.7,0.1h-6.5L487.1,79.1L487.1,79.1z M491,82.3v4.4h2.5
		c1.5,0,2.4,0,2.8-0.1c0.7-0.1,1.2-0.3,1.6-0.7c0.4-0.4,0.6-0.9,0.6-1.5c0-0.6-0.2-1.1-0.5-1.4c-0.3-0.4-0.8-0.6-1.5-0.7
		c-0.4,0-1.5-0.1-3.3-0.1L491,82.3L491,82.3z M491,89.9V95h3.6c1.4,0,2.3,0,2.7-0.1c0.6-0.1,1-0.4,1.4-0.8c0.4-0.4,0.5-0.9,0.5-1.6
		c0-0.6-0.1-1.1-0.4-1.5c-0.3-0.4-0.7-0.7-1.2-0.9c-0.5-0.2-1.7-0.3-3.4-0.3C494.1,89.9,491,89.9,491,89.9z"/>
	<path class="st8" d="M506.6,98.3v-19h3.9V95h9.6v3.2L506.6,98.3L506.6,98.3z"/>
	<path class="st8" d="M522.7,98.3V79.1h3.9v19.2C526.6,98.3,522.7,98.3,522.7,98.3z"/>
	<path class="st8" d="M529.3,92l3.8-0.4c0.2,1.3,0.7,2.2,1.4,2.8c0.7,0.6,1.6,0.9,2.8,0.9c1.2,0,2.2-0.3,2.8-0.8
		c0.6-0.5,0.9-1.1,0.9-1.9c0-0.5-0.1-0.8-0.4-1.2c-0.3-0.3-0.7-0.6-1.4-0.8c-0.5-0.2-1.5-0.4-3.1-0.8c-2.1-0.5-3.5-1.1-4.4-1.9
		c-1.2-1.1-1.8-2.3-1.8-3.9c0-1,0.3-1.9,0.8-2.7c0.6-0.9,1.4-1.5,2.4-1.9c1-0.4,2.3-0.7,3.8-0.7c2.4,0,4.2,0.5,5.4,1.6
		c1.2,1.1,1.9,2.5,1.9,4.2l-3.9,0.2c-0.2-1-0.5-1.7-1.1-2.1c-0.5-0.4-1.4-0.6-2.5-0.6c-1.1,0-2,0.2-2.6,0.7
		c-0.4,0.3-0.6,0.7-0.6,1.2c0,0.5,0.2,0.8,0.6,1.2c0.5,0.4,1.7,0.8,3.6,1.3c1.9,0.4,3.3,0.9,4.2,1.4c0.9,0.5,1.6,1.1,2.1,1.9
		c0.5,0.8,0.8,1.8,0.8,3.1c0,1.1-0.3,2.1-0.9,3.1c-0.6,1-1.5,1.7-2.6,2.1c-1.1,0.5-2.5,0.7-4.2,0.7c-2.4,0-4.3-0.6-5.6-1.7
		C530.3,95.8,529.6,94.2,529.3,92z"/>
	<path class="st8" d="M548.2,98.3V79.1h3.9v7.6h7.6v-7.6h3.9v19.2h-3.9v-8.4H552v8.4C552,98.3,548.2,98.3,548.2,98.3z"/>
	<path class="st8" d="M567.5,98.3V79.1h14.2v3.2h-10.3v4.3h9.6v3.2h-9.6V95h10.7v3.2L567.5,98.3L567.5,98.3z"/>
	<path class="st8" d="M585.4,79.1h7.1c1.6,0,2.8,0.1,3.7,0.4c1.1,0.3,2.1,0.9,2.9,1.8c0.8,0.8,1.4,1.9,1.8,3.1
		c0.4,1.2,0.6,2.7,0.6,4.5c0,1.6-0.2,2.9-0.6,4.1c-0.5,1.4-1.2,2.5-2.1,3.4c-0.7,0.7-1.6,1.2-2.7,1.5c-0.9,0.3-2,0.4-3.4,0.4h-7.3
		L585.4,79.1L585.4,79.1z M589.3,82.3V95h2.9c1.1,0,1.9-0.1,2.3-0.2c0.6-0.2,1.1-0.4,1.6-0.8c0.4-0.4,0.8-1,1-1.9
		c0.3-0.9,0.4-2,0.4-3.5c0-1.5-0.1-2.6-0.4-3.4c-0.3-0.8-0.6-1.4-1.1-1.9c-0.5-0.4-1.1-0.7-1.8-0.9c-0.5-0.1-1.6-0.2-3.2-0.2
		L589.3,82.3L589.3,82.3z"/>
	<path class="st8" d="M620.8,98.3h-3.7V84.4c-1.3,1.3-2.9,2.2-4.8,2.8v-3.3c1-0.3,2-0.9,3.1-1.8c1.1-0.9,1.9-1.9,2.3-3.1h3
		L620.8,98.3L620.8,98.3z"/>
	<path class="st8" d="M626.4,93.8l3.6-0.4c0.1,0.7,0.3,1.3,0.7,1.6c0.4,0.3,0.8,0.5,1.5,0.5c0.8,0,1.4-0.3,1.9-1
		c0.5-0.7,0.9-2.1,1-4.3c-0.9,1.1-2.1,1.6-3.5,1.6c-1.5,0-2.8-0.6-3.9-1.7c-1.1-1.2-1.6-2.7-1.6-4.5c0-1.9,0.6-3.5,1.7-4.7
		c1.2-1.2,2.6-1.8,4.4-1.8c1.9,0,3.5,0.8,4.8,2.3c1.2,1.5,1.9,4,1.9,7.4c0,3.5-0.7,6-2,7.6c-1.3,1.6-3,2.3-5.1,2.3
		c-1.5,0-2.7-0.4-3.6-1.2C627.2,96.6,626.6,95.4,626.4,93.8z M634.7,85.8c0-1.2-0.3-2.1-0.8-2.8c-0.5-0.7-1.2-1-1.9-1
		c-0.7,0-1.2,0.3-1.7,0.8c-0.5,0.5-0.7,1.4-0.7,2.6c0,1.2,0.2,2.1,0.7,2.7c0.5,0.6,1.1,0.9,1.8,0.9c0.7,0,1.3-0.3,1.8-0.8
		C634.4,87.7,634.7,86.9,634.7,85.8z"/>
	<path class="st8" d="M653.7,83.8l-3.6,0.4c-0.1-0.7-0.3-1.3-0.7-1.6c-0.4-0.3-0.8-0.5-1.4-0.5c-0.8,0-1.4,0.3-2,1
		c-0.5,0.7-0.9,2.2-1,4.4c0.9-1.1,2.1-1.6,3.4-1.6c1.5,0,2.8,0.6,3.9,1.8c1.1,1.2,1.6,2.7,1.6,4.5c0,2-0.6,3.5-1.7,4.7
		c-1.2,1.2-2.6,1.8-4.4,1.8c-1.9,0-3.5-0.8-4.8-2.3c-1.2-1.5-1.9-4-1.9-7.4c0-3.5,0.6-6.1,1.9-7.6s3-2.3,5.1-2.3
		c1.5,0,2.7,0.4,3.6,1.2C652.8,81.1,653.4,82.2,653.7,83.8z M645.3,91.8c0,1.2,0.3,2.1,0.8,2.8c0.5,0.6,1.2,1,1.9,1
		c0.7,0,1.2-0.3,1.7-0.8c0.5-0.5,0.7-1.4,0.7-2.6c0-1.2-0.2-2.2-0.7-2.7c-0.5-0.6-1.1-0.9-1.8-0.9c-0.7,0-1.3,0.3-1.8,0.8
		C645.6,89.9,645.3,90.7,645.3,91.8z"/>
	<path class="st8" d="M656.1,82.8v-3.4h12.6V82c-1,1-2.1,2.5-3.2,4.4c-1.1,1.9-1.9,3.9-2.5,6.1c-0.6,2.1-0.8,4.1-0.8,5.8h-3.5
		c0.1-2.7,0.6-5.4,1.6-8.1c1-2.8,2.4-5.2,4.1-7.4L656.1,82.8L656.1,82.8z"/>
</g>
<rect x="675.9" y="88.8" class="st8" width="285.9" height="1.8"/>
<rect x="123.7" y="88.8" class="st8" width="285.9" height="1.8"/>
<g>
	<path class="st8" d="M348.9,107.7c-2.6,4.7-3.6,8.8-3.6,14c0,5.3,1,9.3,3.6,14h-3.3c-3.1-4.9-4.5-9.7-4.5-14c0-4.4,1.3-9.2,4.5-14
		H348.9z"/>
	<path class="st8" d="M354.9,107.7h5.6l6,22.3h-4.8l-1.1-4.7h-6l-1,4.7h-4.8L354.9,107.7z M355.5,121.6h4.5l-2.2-10h-0.1
		L355.5,121.6z"/>
	<path class="st8" d="M385.4,115.2c0-3.2-0.7-4.7-2.7-4.7c-2.3,0-2.8,2.3-2.8,8.6c0,6.7,0.9,7.9,2.9,7.9c1.7,0,2.9-0.8,2.9-5.6h4.6
		c0,4.8-1.2,9-7.2,9c-6.9,0-7.7-4.8-7.7-11.6c0-6.8,0.8-11.6,7.7-11.6c6.5,0,7,4.7,7,8H385.4z"/>
	<path class="st8" d="M392.7,107.7h4.4v7.2h0c0.8-1.4,2.3-2.2,4.2-2.2c2.7,0,4.3,1.5,4.3,4.8V130h-4.4v-11.6c0-1.7-0.6-2.4-1.9-2.4
		c-1.5,0-2.3,0.9-2.3,2.8V130h-4.4V107.7z"/>
	<path class="st8" d="M408.6,113.2h4.2v2.3h0.1c0.9-1.6,2.1-2.7,3.9-2.7c0.3,0,0.6,0,0.8,0.1v4.1c-0.5,0-0.9-0.1-1.4-0.1
		c-1.5,0-3.2,0.8-3.2,3V130h-4.4V113.2z"/>
	<path class="st8" d="M419.3,107.4h4.4v3.7h-4.4V107.4z M419.3,113.2h4.4V130h-4.4V113.2z"/>
	<path class="st8" d="M430,124.5v0.6c0,1.5,0.8,2.4,2.3,2.4c1.3,0,2.2-0.7,2.2-2c0-1.1-0.7-1.6-1.6-1.9l-3.1-1.1
		c-2.4-0.8-3.7-2.3-3.7-4.7c0-2.8,1.8-5.1,6.3-5.1c4,0,5.9,1.7,5.9,4.8v0.7h-3.9c0-1.7-0.5-2.5-2-2.5c-1.1,0-2,0.6-2,1.8
		c0,0.8,0.4,1.5,1.9,2l2.7,0.9c2.8,0.9,3.8,2.3,3.8,4.8c0,3.5-2.7,5.3-6.4,5.3c-4.9,0-6.3-2.2-6.3-5.4v-0.6H430z"/>
	<path class="st8" d="M441.8,108.4h4.4v4.8h2.5v2.9h-2.5v9.1c0,1.3,0.3,1.8,1.5,1.8c0.4,0,0.7,0,1-0.1v3c-1,0.1-1.8,0.2-2.8,0.2
		c-3.4,0-4.1-1-4.1-4.5v-9.6h-2.2v-2.9h2.2V108.4z"/>
	<path class="st8" d="M450.4,107.4h4.4v3.7h-4.4V107.4z M450.4,113.2h4.4V130h-4.4V113.2z"/>
	<path class="st8" d="M457.9,118.3v-0.4c0-3.9,2.7-5.2,6-5.2c5.2,0,6.2,2.1,6.2,5.2v8.8c0,1.6,0.1,2.3,0.6,3.3h-4.2
		c-0.3-0.5-0.4-1.2-0.6-1.8h-0.1c-1,1.8-2.3,2.2-4.3,2.2c-3,0-4.1-2.6-4.1-4.8c0-3.1,1.3-4.4,4.3-5.2l2.5-0.7c1.3-0.3,1.7-0.8,1.7-2
		c0-1.3-0.6-2.1-2-2.1c-1.3,0-2,0.9-2,2.2v0.5H457.9z M465.9,121.6c-0.6,0.4-1.3,0.7-1.9,0.8c-1.8,0.4-2.5,1.2-2.5,2.7
		c0,1.3,0.5,2.4,1.6,2.4c1.2,0,2.7-0.8,2.7-2.6V121.6z"/>
	<path class="st8" d="M473.2,113.2h4.2v2h0c0.9-1.7,2.5-2.4,4.4-2.4c2.7,0,4.4,1.5,4.4,4.8V130h-4.4v-11.6c0-1.7-0.6-2.4-1.9-2.4
		c-1.5,0-2.3,0.9-2.3,2.8V130h-4.4V113.2z"/>
	<path class="st8" d="M496.9,107.7h6.8l3.3,15.7h0.1l3.3-15.7h6.8V130h-4.2v-17.8h-0.1l-4,17.8h-3.6l-4-17.8h-0.1V130h-4.2V107.7z"
		/>
	<path class="st8" d="M520.3,107.4h4.4v3.7h-4.4V107.4z M520.3,113.2h4.4V130h-4.4V113.2z"/>
	<path class="st8" d="M527.8,113.2h4.2v2h0.1c0.9-1.7,2.5-2.4,4.4-2.4c2.7,0,4.3,1.5,4.3,4.8V130h-4.4v-11.6c0-1.7-0.6-2.4-1.9-2.4
		c-1.5,0-2.3,0.9-2.3,2.8V130h-4.4V113.2z"/>
	<path class="st8" d="M549.8,112.7c5.3-0.1,6.7,3,6.7,8.9c0,5.7-1.7,8.9-6.7,8.9c-5.3,0.1-6.7-3-6.7-8.9
		C543.1,115.8,544.8,112.7,549.8,112.7z M549.8,127.5c1.8,0,2.4-1.7,2.4-5.9c0-4.2-0.6-5.9-2.4-5.9c-2.2,0-2.4,2.5-2.4,5.9
		C547.4,125,547.6,127.5,549.8,127.5z"/>
	<path class="st8" d="M558.9,113.2h4.2v2.3h0.1c0.9-1.6,2.1-2.7,3.9-2.7c0.2,0,0.5,0,0.8,0.1v4.1c-0.5,0-0.9-0.1-1.4-0.1
		c-1.5,0-3.2,0.8-3.2,3V130h-4.4V113.2z"/>
	<path class="st8" d="M569.6,107.4h4.4v3.7h-4.4V107.4z M569.6,113.2h4.4V130h-4.4V113.2z"/>
	<path class="st8" d="M578,108.4h4.4v4.8h2.5v2.9h-2.5v9.1c0,1.3,0.3,1.8,1.5,1.8c0.4,0,0.7,0,1-0.1v3c-1,0.1-1.8,0.2-2.9,0.2
		c-3.4,0-4-1-4-4.5v-9.6h-2.3v-2.9h2.3V108.4z"/>
	<path class="st8" d="M586.5,132.3c0.4,0.1,0.8,0.1,1.1,0.1c1.6,0,2.2-0.9,2.3-2.4l-4.8-16.8h4.6l2.5,11.6h0.1l2.2-11.6h4.4
		l-4.2,15.7c-1.5,5.8-2.5,6.6-6.6,6.6h-1.8V132.3z"/>
	<path class="st8" d="M608.5,130v-22.3h4.6V130H608.5z"/>
	<path class="st8" d="M616.4,113.2h4.2v2h0.1c0.9-1.7,2.5-2.4,4.4-2.4c2.7,0,4.3,1.5,4.3,4.8V130H625v-11.6c0-1.7-0.6-2.4-1.9-2.4
		c-1.5,0-2.3,0.9-2.3,2.8V130h-4.4V113.2z"/>
	<path class="st8" d="M635.4,124.5v0.6c0,1.5,0.8,2.4,2.3,2.4c1.3,0,2.2-0.7,2.2-2c0-1.1-0.7-1.6-1.6-1.9l-3.1-1.1
		c-2.4-0.8-3.7-2.3-3.7-4.7c0-2.8,1.8-5.1,6.3-5.1c3.9,0,5.8,1.7,5.8,4.8v0.7h-3.9c0-1.7-0.5-2.5-1.9-2.5c-1.1,0-2.1,0.6-2.1,1.8
		c0,0.8,0.5,1.5,1.9,2l2.6,0.9c2.8,0.9,3.8,2.3,3.8,4.8c0,3.5-2.7,5.3-6.4,5.3c-4.9,0-6.3-2.2-6.3-5.4v-0.6H635.4z"/>
	<path class="st8" d="M647.3,108.4h4.4v4.8h2.6v2.9h-2.6v9.1c0,1.3,0.3,1.8,1.6,1.8c0.4,0,0.7,0,1-0.1v3c-1,0.1-1.8,0.2-2.9,0.2
		c-3.4,0-4.1-1-4.1-4.5v-9.6h-2.2v-2.9h2.2V108.4z"/>
	<path class="st8" d="M655.9,107.4h4.4v3.7h-4.4V107.4z M655.9,113.2h4.4V130h-4.4V113.2z"/>
	<path class="st8" d="M664.3,108.4h4.4v4.8h2.5v2.9h-2.5v9.1c0,1.3,0.3,1.8,1.6,1.8c0.3,0,0.7,0,1-0.1v3c-0.9,0.1-1.8,0.2-2.9,0.2
		c-3.4,0-4.1-1-4.1-4.5v-9.6h-2.2v-2.9h2.2V108.4z"/>
	<path class="st8" d="M681.5,128L681.5,128c-1,1.7-2.6,2.4-4.4,2.4c-2.7,0-4.4-1.5-4.4-4.8v-12.4h4.4v11.6c0,1.7,0.6,2.4,1.9,2.4
		c1.5,0,2.3-0.9,2.3-2.8v-11.1h4.4V130h-4.2V128z"/>
	<path class="st8" d="M689.6,108.4h4.4v4.8h2.5v2.9H694v9.1c0,1.3,0.3,1.8,1.5,1.8c0.4,0,0.7,0,1-0.1v3c-0.9,0.1-1.8,0.2-2.9,0.2
		c-3.4,0-4-1-4-4.5v-9.6h-2.2v-2.9h2.2V108.4z"/>
	<path class="st8" d="M698.2,107.4h4.4v3.7h-4.4V107.4z M698.2,113.2h4.4V130h-4.4V113.2z"/>
	<path class="st8" d="M711.8,112.7c5.3-0.1,6.8,3,6.8,8.9c0,5.7-1.7,8.9-6.8,8.9c-5.3,0.1-6.7-3-6.7-8.9
		C705.1,115.8,706.8,112.7,711.8,112.7z M711.8,127.5c1.8,0,2.4-1.7,2.4-5.9c0-4.2-0.6-5.9-2.4-5.9c-2.2,0-2.3,2.5-2.3,5.9
		C709.5,125,709.6,127.5,711.8,127.5z"/>
	<path class="st8" d="M720.9,113.2h4.2v2h0.1c0.9-1.7,2.5-2.4,4.4-2.4c2.7,0,4.4,1.5,4.4,4.8V130h-4.4v-11.6c0-1.7-0.6-2.4-1.9-2.4
		c-1.5,0-2.3,0.9-2.3,2.8V130h-4.4V113.2z"/>
	<path class="st8" d="M738.7,107.7c3.1,4.9,4.5,9.7,4.5,14c0,4.4-1.3,9.2-4.5,14h-3.4c2.6-4.7,3.6-8.8,3.6-14c0-5.3-1-9.3-3.6-14
		H738.7z"/>
</g>
</svg>
