<?xml version="1.0" encoding="utf-8"?>
<!-- Generator: Adobe Illustrator 16.0.0, SVG Export Plug-In . SVG Version: 6.00 Build 0)  -->
<!DOCTYPE svg PUBLIC "-//W3C//DTD SVG 1.1//EN" "http://www.w3.org/Graphics/SVG/1.1/DTD/svg11.dtd">
<svg version="1.1" id="Layer_1" xmlns="http://www.w3.org/2000/svg" xmlns:xlink="http://www.w3.org/1999/xlink" x="0px" y="0px"
	 width="169.991px" height="171.811px" viewBox="0 0 169.991 171.811" enable-background="new 0 0 169.991 171.811"
	 xml:space="preserve">
<g>
	<path fill="#626366" d="M82.088,171.723l-0.707-0.266c-0.313-0.088-0.616-0.207-0.905-0.336c-1.152-0.518-2.664-1.229-4.618-2.188
		c-2.002-0.971-5.29-2.788-9.807-5.406c-4.604-2.674-9.047-5.521-13.217-8.467c-4.261-3.014-8.938-6.806-13.881-11.299
		c-5.035-4.549-9.451-9.323-13.114-14.177c-3.736-4.943-6.899-10.646-9.402-16.967c-2.563-6.462-3.867-13.091-3.867-19.726V11.01
		c0-2.953,1.121-5.629,3.245-7.763C17.952,1.126,20.634,0,23.576,0h122.833c2.942,0,5.627,1.126,7.752,3.247
		c2.133,2.137,3.25,4.814,3.25,7.763v81.882c0,6.607-1.296,13.253-3.855,19.726c-2.511,6.32-5.681,12.028-9.403,16.967
		c-3.668,4.845-8.084,9.628-13.121,14.177c-4.962,4.496-9.632,8.293-13.874,11.299c-4.194,2.959-8.637,5.802-13.215,8.467
		c-4.602,2.657-7.8,4.425-9.792,5.406c-1.852,0.911-3.41,1.646-4.648,2.188c-0.279,0.129-0.57,0.235-0.867,0.324l-0.71,0.265
		l-0.778,0.013H82.088z"/>
	<path fill="#183665" d="M82.833,46.975V3.736H23.238c-1.861,0-3.47,0.68-4.821,2.037c-1.361,1.36-2.036,2.964-2.036,4.821v36.381
		H82.833z"/>
	<path fill="#005834" d="M16.381,51.305V92.94c0,6.142,1.191,12.241,3.592,18.279c2.39,6.036,5.357,11.394,8.891,16.074
		c3.541,4.687,7.76,9.245,12.657,13.674c4.892,4.431,9.417,8.112,13.567,11.045c4.141,2.925,8.473,5.691,12.973,8.31
		c4.495,2.604,7.698,4.368,9.588,5.311c1.898,0.917,3.413,1.636,4.557,2.138c0.201,0.104,0.412,0.146,0.626,0.227V51.305H16.381z"/>
	<path fill="#901B2B" d="M153.614,46.975V10.594c0-1.857-0.673-3.461-2.036-4.828c-1.356-1.353-2.968-2.031-4.823-2.031h-59.59
		v43.239H153.614z"/>
	<path fill="#183665" d="M87.165,51.305v116.691c0.208-0.08,0.418-0.128,0.612-0.227c1.151-0.502,2.667-1.21,4.567-2.138
		c1.89-0.942,5.091-2.706,9.598-5.311c4.491-2.618,8.824-5.385,12.961-8.31c4.151-2.933,8.671-6.614,13.572-11.045
		c4.896-4.434,9.111-8.987,12.652-13.674c3.536-4.681,6.505-10.038,8.899-16.074c2.392-6.038,3.587-12.138,3.587-18.279V51.305
		H87.165z"/>
	<path fill="#E7B809" d="M145.661,45.817v0.009v0.001H88.308V11.695l0,0h0.011c0-5.385,3.267-7.959,3.267-7.959H78.403
		c0,0,3.273,2.574,3.273,7.959h0.006v34.133H24.33v-0.001v-0.009c-5.389,0-7.961-3.274-7.961-3.274v13.192
		c0,0,2.572-3.271,7.961-3.271v-0.002V52.45h57.353v107.577h-0.006c0,3.233-0.45,5.445-1.726,6.71
		c0.862,0.411,1.622,0.761,2.256,1.033c0.2,0.099,0.405,0.146,0.612,0.221h0.002h0.012h4.332h0.013
		c0.202-0.074,0.414-0.122,0.6-0.221c0.636-0.272,1.397-0.622,2.255-1.033c-1.266-1.251-1.713-3.477-1.713-6.71h-0.011V52.45h57.353
		v0.013c5.382,0,7.953,3.271,7.953,3.271V42.543C153.614,42.543,151.043,45.817,145.661,45.817"/>
	<path fill="#FFEB94" d="M49.607,38.642h-0.006c-1.035-0.004-1.89-0.685-2.511-1.191c-0.209-0.17-0.438-0.354-0.574-0.434
		c-3.661-1.932-11.072-0.929-11.147-0.916c-0.234,0.031-0.48-0.035-0.657-0.196c-0.19-0.157-0.292-0.394-0.292-0.63V16.212
		c0-0.258,0.121-0.499,0.323-0.66c0.202-0.155,0.455-0.208,0.705-0.148c1.165,0.281,3.21,0.743,3.76,0.774
		c0.46,0.035,0.803,0.427,0.778,0.89c-0.021,0.454-0.417,0.808-0.879,0.776c-0.577-0.036-2.012-0.347-3.026-0.584v17.086
		c2.25-0.223,7.895-0.559,11.222,1.206c0.279,0.154,0.551,0.367,0.835,0.603c0.452,0.362,1.019,0.816,1.47,0.825
		c0.451,0,1.042-0.481,1.508-0.874c0.298-0.243,0.593-0.477,0.873-0.629c3.32-1.755,8.901-1.379,11.128-1.143V17.119L60.2,17.824
		c-0.453,0.106-0.902-0.172-1.008-0.616c-0.108-0.449,0.171-0.903,0.612-1.008l3.959-0.946c0.243-0.057,0.504-0.002,0.712,0.159
		c0.192,0.156,0.316,0.4,0.316,0.65v19.219c0,0.245-0.11,0.473-0.287,0.628c-0.193,0.159-0.432,0.234-0.674,0.196
		c-0.078-0.018-7.418-1.085-11.066,0.845c-0.137,0.075-0.367,0.266-0.589,0.448C51.533,37.918,50.65,38.642,49.607,38.642"/>
	<path fill="#FFEB94" d="M49.082,34.575l-0.256-0.15c-2.663-1.523-6.784-1.747-9.001-1.747h-0.952V14.42
		c0-1.418,0.817-2.27,2.179-2.27c2.413,0,7.101,3.041,8.517,4.208c1.464-1.158,6.339-3.984,8.67-3.984
		c1.304,0,2.102,0.781,2.102,2.045v18.258h-0.955c-2.239,0-6.39,0.228-9.053,1.78l-0.259,0.155l-0.465,0.266L49.082,34.575z
		 M50.733,17.575L50.742,18v14.4c2.467-1.03,5.495-1.34,7.929-1.386V14.42c0-0.294,0-0.387-0.433-0.387
		C56.317,14.033,51.995,16.707,50.733,17.575 M40.537,31.014c2.409,0.045,5.415,0.347,7.874,1.366V17.552
		c-1.225-0.905-5.436-3.739-7.359-3.739c-0.359,0-0.514,0.028-0.514,0.607V31.014z"/>
	<path fill="#FFEB94" d="M66.118,90.576l-5.155,4.934l1.563,0.455c-2.25,3.695-6.289,5.304-10.906,5.627V82.905h4.279
		c0.359,0.356,0.853,0.574,1.399,0.574c1.083,0,1.961-0.879,1.961-1.965c0-1.094-0.878-1.972-1.961-1.972
		c-0.546,0-1.04,0.217-1.399,0.573H51.62v-2.255c2.071-0.803,3.567-2.815,3.567-5.177c0-3.075-2.514-5.583-5.581-5.583
		c-3.075,0-5.581,2.508-5.581,5.583c0,2.524,1.698,4.635,4.019,5.32v2.112h-4.735c-0.362-0.356-0.853-0.573-1.402-0.573
		c-1.085,0-1.971,0.877-1.971,1.972c0,1.085,0.886,1.965,1.971,1.965c0.549,0,1.04-0.218,1.402-0.574h4.735v18.672
		c-4.859-0.361-9.116-2.254-11.238-6.242l1.565-0.348l-4.83-5.265l-2.157,6.802l1.828-0.393c2.665,5.813,8.714,10.504,15.557,10.959
		l1.05,3.872l1.076-3.858c6.502-0.438,12.297-4.723,15.157-10.116l1.771,0.526L66.118,90.576z M49.606,75.535
		c-1.583,0-2.869-1.275-2.869-2.851c0-1.584,1.286-2.871,2.869-2.871c1.578,0,2.867,1.295,2.867,2.871
		C52.473,74.26,51.184,75.535,49.606,75.535"/>
	<path fill="#4D4D4F" d="M129.359,161.002c11.275,2.769,22.116,6.291,32.847,10.662c-1.128-4.677-1.756-7.005-3.188-11.679
		c4.277-2.493,6.472-3.684,10.973-5.942c-11.784-4.835-23.735-8.699-36.131-11.731C132.36,148.549,130.857,154.784,129.359,161.002"
		/>
	<polygon fill="#231F20" points="153.557,158.117 129.359,160.99 133.97,141.865 160.327,140.858 	"/>
	<path fill="#4D4D4F" d="M40.636,161.144c-11.28,2.771-22.118,6.294-32.851,10.667c1.119-4.673,1.75-7.007,3.173-11.685
		C6.697,157.634,4.5,156.441,0,154.177c11.784-4.818,23.731-8.696,36.122-11.719C37.625,148.682,39.126,154.918,40.636,161.144"/>
	<polygon fill="#231F20" points="16.383,158.152 40.625,161.085 35.992,141.91 9.646,140.827 	"/>
	<path fill="#626366" d="M160.346,140.818c-24.825-13.051-49.937-19.405-75.35-19.311v-0.003c-0.053,0-0.124,0.003-0.172,0.003
		c-0.219,0-0.425-0.003-0.637-0.003v0.025c-24.542,0.354-49.383,6.848-74.548,19.288c2.242,5.769,4.481,11.543,6.727,17.308
		c28.037-11.473,48.354-17.229,68.326-17.378c20.575,0,40.897,5.822,68.863,17.378C155.82,152.361,158.083,146.586,160.346,140.818"
		/>
	<polygon fill="#E7B809" points="109.142,131.105 109.525,132.4 110.631,131.618 110.182,132.895 111.53,132.913 110.409,133.674 
		111.497,134.482 110.151,134.457 110.551,135.738 109.479,134.916 109.037,136.194 108.658,134.902 107.556,135.684 
		108.004,134.411 106.659,134.386 107.772,133.628 106.687,132.817 108.038,132.852 107.638,131.56 108.705,132.386 	"/>
	<polygon fill="#E7B809" points="56.195,131.105 56.58,132.4 57.689,131.618 57.234,132.895 58.581,132.913 57.468,133.674 
		58.551,134.482 57.2,134.457 57.601,135.738 56.529,134.916 56.098,136.194 55.711,134.902 54.61,135.684 55.063,134.411 
		53.709,134.386 54.822,133.628 53.746,132.817 55.094,132.852 54.686,131.56 55.759,132.386 	"/>
	<path fill="#FFEB94" d="M126.47,11.721l-1.299,1.729c4.731,3.553,5.693,10.298,2.142,15.028c-1.718,2.294-4.228,3.778-7.061,4.182
		c-2.854,0.407-5.677-0.318-7.962-2.038l-1.297,1.726c2.25,1.691,4.934,2.587,7.716,2.587c0.015,0,0.042-0.002,0.058-0.002v1.596
		h-3.668v2.454h9.512v-2.454h-3.68v-1.792c3.251-0.566,6.123-2.312,8.114-4.962C133.307,24.085,132.149,15.994,126.47,11.721"/>
	<path fill="#FFEB94" d="M112.622,19.263c0.658,1.001,1.141,3.174,2.447,3.499c0.707,0.177,0.669,0.267,0.581-0.396
		c-0.066-0.336-0.134-0.69-0.15-1.034c-0.041-0.991-0.97-1.887-0.695-2.931c0.329-1.179,1.331-1.599,1.055-3.02
		c-0.155-0.791-0.343-1.549-0.425-2.323c-1.683,0.615-3.203,1.7-4.355,3.234c-0.351,0.466-0.651,0.951-0.897,1.45
		C111.155,17.886,112.005,18.37,112.622,19.263"/>
	<path fill="#FFEB94" d="M112.987,29.689c4.228,3.172,10.221,2.315,13.393-1.914c0.256-0.339,0.486-0.684,0.685-1.046
		c-1.03-0.576-1.988-1.304-2.905-2.024c-1.105-0.876-2.593-2.058-2.756-3.581c-0.17-1.615,1.099-2.397,2.567-2.224
		c1.439,0.168,1.237-0.789,1.848-1.678c0.216-0.317,0.441-0.552,0.696-0.751c-0.55-0.78-1.24-1.48-2.047-2.09
		c-2.23-1.667-4.94-2.218-7.474-1.753c0.102,1.364,0.577,2.69,0.477,4.08c-0.088,1.338-1.44,1.624-0.708,3.183
		c0.548,1.155,0.947,3.53-0.229,4.399c-1.37,1.006-3.406-0.745-4.018-1.861c-0.834-1.5-1.253-3.02-2.958-3.127
		C108.442,23.033,109.693,27.221,112.987,29.689"/>
	<path fill="#FFEB94" d="M123.208,21.531c0.933,1.408,2.779,2.886,4.502,3.79c0.903-2.446,0.741-5.146-0.369-7.459
		c-0.644,0.683-0.63,1.965-1.597,2.388C124.96,20.596,122.328,20.198,123.208,21.531"/>
	<path fill="#FFFFFF" d="M21.646,146.962l1.491-0.801c0.667,1.169,1.492,1.553,2.466,1.169c0.477-0.195,0.811-0.465,0.981-0.833
		c0.179-0.371,0.189-0.729,0.042-1.104c-0.086-0.216-0.21-0.385-0.369-0.506c-0.157-0.113-0.352-0.184-0.589-0.197
		c-0.24-0.026-0.782,0.006-1.632,0.08c-0.765,0.054-1.348,0.043-1.766-0.08c-0.409-0.119-0.787-0.337-1.13-0.654
		c-0.343-0.318-0.604-0.699-0.785-1.149c-0.212-0.531-0.279-1.047-0.206-1.569c0.071-0.513,0.276-0.954,0.614-1.349
		c0.334-0.38,0.807-0.693,1.426-0.941c0.94-0.367,1.76-0.411,2.485-0.109c0.721,0.301,1.284,0.914,1.693,1.838l-1.571,0.722
		c-0.27-0.491-0.571-0.788-0.887-0.907c-0.311-0.111-0.685-0.084-1.111,0.088c-0.433,0.169-0.729,0.389-0.885,0.659
		c-0.166,0.278-0.191,0.548-0.081,0.819c0.097,0.256,0.292,0.432,0.57,0.534c0.288,0.093,0.858,0.097,1.699,0.007
		c0.894-0.088,1.57-0.078,2.034,0.037c0.46,0.123,0.86,0.346,1.209,0.671c0.35,0.332,0.641,0.787,0.871,1.371
		c0.339,0.831,0.358,1.645,0.065,2.408c-0.283,0.782-0.979,1.385-2.071,1.826C24.273,149.77,22.745,149.093,21.646,146.962"/>
	<polygon fill="#FFFFFF" points="30.597,147.099 27.198,137.277 33.18,135.217 33.755,136.879 29.396,138.382 30.152,140.556 
		34.201,139.156 34.765,140.818 30.722,142.215 31.644,144.871 36.144,143.32 36.719,144.977 	"/>
	<polygon fill="#FFFFFF" points="38.027,144.565 35.057,134.616 41.12,132.798 41.617,134.496 37.206,135.8 37.864,138.011 
		41.965,136.793 42.464,138.465 38.365,139.686 39.169,142.392 43.737,141.034 44.234,142.714 	"/>
	<polygon fill="#FFFFFF" points="45.53,142.355 42.995,132.28 44.657,131.866 45.787,136.353 48.031,131.016 50.282,130.446 
		48.151,135.158 52.979,140.477 50.826,141.025 47.351,136.861 46.426,138.894 47.201,141.935 	"/>
	<path fill="#FFFFFF" d="M62.463,135.141l1.627-0.441c0.392,1.272,1.101,1.839,2.14,1.676c0.515-0.071,0.898-0.27,1.151-0.585
		c0.253-0.311,0.347-0.668,0.289-1.064c-0.036-0.23-0.117-0.425-0.246-0.574c-0.127-0.142-0.307-0.257-0.531-0.332
		c-0.226-0.066-0.762-0.174-1.606-0.287c-0.759-0.116-1.329-0.262-1.703-0.471c-0.377-0.202-0.691-0.493-0.961-0.888
		c-0.261-0.388-0.427-0.826-0.504-1.295c-0.086-0.566-0.033-1.093,0.155-1.578c0.183-0.485,0.484-0.875,0.903-1.18
		c0.407-0.294,0.942-0.491,1.6-0.589c0.991-0.158,1.804-0.009,2.439,0.447c0.639,0.446,1.054,1.166,1.237,2.164l-1.691,0.348
		c-0.157-0.531-0.378-0.894-0.649-1.07c-0.286-0.194-0.66-0.24-1.115-0.169c-0.453,0.067-0.793,0.216-1.014,0.446
		c-0.216,0.229-0.301,0.486-0.261,0.77c0.043,0.279,0.193,0.504,0.445,0.646c0.25,0.16,0.798,0.291,1.649,0.403
		c0.891,0.114,1.543,0.272,1.969,0.493c0.424,0.213,0.767,0.523,1.03,0.924c0.272,0.398,0.451,0.913,0.548,1.526
		c0.131,0.885-0.024,1.681-0.484,2.375c-0.451,0.685-1.258,1.123-2.427,1.299C64.384,138.453,63.056,137.458,62.463,135.141"/>
	<polygon fill="#FFFFFF" points="71.153,137.264 70.014,126.941 71.717,126.755 72.165,130.817 75.524,130.446 75.085,126.383 
		76.785,126.203 77.917,136.525 76.21,136.711 75.717,132.201 72.361,132.569 72.848,137.077 	"/>
	<path fill="#FFFFFF" d="M87.147,136.327l-1.864,0.026l-0.78-2.343l-3.405,0.035l-0.673,2.358l-1.83,0.027l3.183-10.427l1.826-0.024
		L87.147,136.327z M83.93,132.253l-1.224-3.836l-1.103,3.862L83.93,132.253z"/>
	<path fill="#FFFFFF" d="M87.894,136.37l0.516-10.376l3.618,0.177c0.913,0.051,1.574,0.168,1.969,0.381
		c0.385,0.204,0.694,0.545,0.925,1.019c0.228,0.467,0.327,1.03,0.305,1.66c-0.04,0.821-0.271,1.459-0.681,1.94
		c-0.419,0.478-0.99,0.761-1.706,0.849c0.351,0.288,0.638,0.593,0.867,0.915c0.222,0.329,0.523,0.907,0.901,1.738l0.931,2.082
		l-2.052-0.109l-1.125-2.316c-0.404-0.836-0.689-1.37-0.838-1.583c-0.152-0.212-0.32-0.359-0.489-0.446
		c-0.173-0.088-0.462-0.142-0.861-0.159l-0.354-0.018l-0.211,4.327L87.894,136.37z M89.902,130.468l1.273,0.062
		c0.782,0.036,1.277,0.027,1.494-0.038c0.215-0.046,0.394-0.179,0.535-0.382c0.144-0.198,0.223-0.477,0.24-0.813
		c0.019-0.336-0.036-0.605-0.156-0.813c-0.126-0.204-0.292-0.35-0.521-0.438c-0.151-0.058-0.614-0.11-1.388-0.146l-1.346-0.067
		L89.902,130.468z"/>
	<polygon fill="#FFFFFF" points="96.33,136.842 97.438,126.516 103.728,127.187 103.542,128.939 98.959,128.448 98.711,130.735 
		102.962,131.189 102.784,132.922 98.529,132.47 98.226,135.278 102.96,135.782 102.774,137.523 	"/>
	<path fill="#FFFFFF" d="M114.046,136.06l1.675,0.223c-0.142,1.328,0.293,2.124,1.313,2.387c0.506,0.132,0.93,0.093,1.282-0.098
		c0.363-0.182,0.588-0.482,0.685-0.871c0.054-0.225,0.054-0.437,0-0.614c-0.062-0.19-0.18-0.358-0.359-0.514
		c-0.184-0.158-0.637-0.451-1.365-0.902c-0.659-0.393-1.118-0.755-1.386-1.086c-0.268-0.345-0.442-0.734-0.533-1.19
		c-0.087-0.46-0.078-0.927,0.038-1.402c0.141-0.555,0.396-1.012,0.756-1.382c0.361-0.38,0.789-0.622,1.286-0.734
		c0.493-0.119,1.07-0.089,1.708,0.08c0.977,0.242,1.665,0.689,2.078,1.36c0.409,0.664,0.506,1.501,0.295,2.481l-1.7-0.34
		c0.067-0.552,0-0.97-0.181-1.246c-0.19-0.28-0.509-0.471-0.961-0.594c-0.447-0.106-0.815-0.101-1.105,0.022
		c-0.287,0.128-0.468,0.328-0.539,0.606c-0.067,0.276-0.016,0.534,0.157,0.776c0.172,0.244,0.623,0.576,1.362,1.004
		c0.775,0.45,1.315,0.861,1.619,1.229c0.303,0.361,0.5,0.782,0.591,1.25c0.086,0.47,0.055,1.009-0.098,1.614
		c-0.224,0.876-0.681,1.544-1.369,2.002c-0.687,0.459-1.602,0.535-2.75,0.248C114.528,139.853,113.694,138.42,114.046,136.06"/>
	<polygon fill="#FFFFFF" points="121.368,141.559 124.152,131.552 130.245,133.245 129.77,134.946 125.332,133.705 124.716,135.928 
		128.837,137.07 128.372,138.749 124.249,137.604 123.493,140.331 128.075,141.605 127.606,143.294 	"/>
	<path fill="#FFFFFF" d="M128.921,143.695l3.154-9.897l3.45,1.096c0.877,0.283,1.482,0.575,1.806,0.87
		c0.323,0.297,0.533,0.708,0.637,1.221c0.099,0.518,0.062,1.084-0.135,1.697c-0.248,0.771-0.632,1.336-1.158,1.689
		c-0.517,0.35-1.141,0.487-1.863,0.39c0.269,0.362,0.481,0.729,0.605,1.104c0.137,0.372,0.279,1.008,0.432,1.91l0.361,2.242
		l-1.944-0.624l-0.504-2.537c-0.179-0.902-0.313-1.49-0.406-1.729c-0.087-0.251-0.208-0.432-0.355-0.557
		c-0.147-0.137-0.411-0.257-0.786-0.381l-0.336-0.106l-1.317,4.139L128.921,143.695z M132.374,138.504l1.22,0.39
		c0.74,0.23,1.223,0.346,1.443,0.346c0.226,0,0.432-0.074,0.619-0.229c0.193-0.16,0.341-0.403,0.444-0.734
		c0.1-0.314,0.122-0.593,0.053-0.817c-0.067-0.23-0.195-0.431-0.389-0.563c-0.137-0.093-0.575-0.261-1.302-0.499l-1.291-0.403
		L132.374,138.504z"/>
	<polygon fill="#FFFFFF" points="138.833,146.962 139.476,136.16 141.231,136.79 140.657,144.756 145.223,138.228 146.941,138.836 
		140.553,147.577 	"/>
	<polygon fill="#FFFFFF" points="144.147,148.907 148.152,139.319 153.981,141.747 153.302,143.372 149.053,141.599 
		148.166,143.722 152.117,145.372 151.439,146.988 147.493,145.344 146.401,147.944 150.8,149.775 150.124,151.392 	"/>
	<path fill="#FFEB94" d="M126.075,74.698c0.185,1.076,1.853,5.229-1.972,3.781c-3.829-1.457-3.698-11.337-2.053-14.039
		c-2.452,0.889-4.148,7.168-4.148,7.168l-0.004,0.042c-0.037-0.108-0.071-0.218-0.119-0.315c-0.186-0.432-0.396-0.808-0.639-1.092
		c-0.229-0.301-0.481-0.52-0.725-0.657c-0.241-0.135-0.448-0.186-0.588-0.199c-0.065-0.016-0.123,0-0.159,0h-0.048
		c0,0,0.015,0.013,0.044,0.031c0.021,0.016,0.081,0.033,0.121,0.078c0.118,0.062,0.242,0.199,0.37,0.383
		c0.26,0.368,0.474,0.996,0.54,1.741c0.043,0.383,0.043,0.802,0.011,1.219c-0.038,0.426-0.104,0.873-0.222,1.319
		c-0.117,0.458-0.283,0.904-0.477,1.336c-0.095,0.227-0.215,0.436-0.328,0.657l-0.167,0.305l-0.126,0.183
		c0.011-0.095,0.031-0.198,0.053-0.293c0.078-0.479,0.119-0.961,0.097-1.388c-0.02-0.453-0.106-0.86-0.232-1.202
		c-0.139-0.336-0.319-0.606-0.493-0.793c-0.167-0.189-0.327-0.297-0.44-0.381c-0.104-0.063-0.168-0.088-0.168-0.088
		s0.04,0.045,0.1,0.172c0.048,0.108,0.103,0.283,0.172,0.49c0.055,0.204,0.088,0.467,0.088,0.752
		c-0.009,0.287-0.035,0.607-0.14,0.948c-0.181,0.685-0.533,1.473-0.943,2.315c-0.2,0.434-0.427,0.878-0.639,1.342
		c-0.236,0.466-0.441,0.941-0.674,1.435c-0.088,0.217-0.221,0.564-0.303,0.873c-0.071,0.307-0.113,0.633-0.124,0.955
		c-0.017,0.312,0,0.622,0.053,0.928c0.036,0.3,0.122,0.586,0.219,0.855c0.372,1.099,1.059,1.937,1.769,2.468
		c0.355,0.271,0.723,0.462,1.059,0.575c0.332,0.13,0.642,0.188,0.896,0.188c0.246,0.014,0.453-0.024,0.583-0.05
		c0.121-0.038,0.184-0.052,0.184-0.052s-0.057-0.023-0.196-0.054c-0.053-0.021-0.13-0.044-0.203-0.079
		c-0.08-0.049-0.174-0.085-0.275-0.14c-0.377-0.209-0.851-0.598-1.264-1.176c-0.409-0.575-0.765-1.32-0.907-2.128
		c-0.071-0.405-0.101-0.809-0.057-1.209c0.016-0.197,0.07-0.394,0.114-0.579c0.038-0.103,0.06-0.204,0.098-0.283
		c0.024-0.082,0.071-0.17,0.118-0.283c0,0.09-0.007,0.187,0,0.288c0.038,0.294,0.038,0.581,0.128,0.857
		c0.113,0.553,0.367,1.048,0.639,1.437c0.157,0.185,0.289,0.374,0.454,0.514c0.085,0.071,0.154,0.155,0.236,0.21
		c0.084,0.059,0.164,0.12,0.248,0.173c0.143,0.106,0.295,0.19,0.44,0.254c0.137,0.074,0.285,0.132,0.411,0.168
		c0.254,0.097,0.44,0.117,0.572,0.144c0.135,0.015,0.202,0.035,0.202,0.035s-0.056-0.057-0.154-0.137
		c-0.05-0.042-0.122-0.095-0.191-0.152c-0.086-0.06-0.152-0.142-0.244-0.226c-0.078-0.075-0.171-0.164-0.263-0.27
		c-0.087-0.117-0.195-0.219-0.27-0.348c-0.045-0.067-0.088-0.138-0.135-0.198c-0.044-0.071-0.086-0.155-0.117-0.227
		c-0.091-0.14-0.147-0.312-0.215-0.471c-0.104-0.34-0.187-0.714-0.187-1.117c-0.004-0.196,0.03-0.399,0.035-0.605
		c0.02-0.108,0.042-0.214,0.055-0.315l0.08-0.32c0.028-0.104,0.069-0.212,0.095-0.333c0.031-0.105,0.08-0.212,0.114-0.316
		c0.069-0.226,0.203-0.424,0.291-0.651c0.094-0.226,0.232-0.43,0.347-0.657c0.004-0.016,0.017-0.034,0.033-0.053
		c-0.148,1.33,0.071,3.58,2.865,4.534c-2.98-5.745-0.248-10.083-0.248-10.083s0.813,9.689,7.683,8.237
		c0.527,4.151-4.261,5.785-4.261,5.785s6.353-0.08,6.477-5.055C129.045,78.004,127.277,75.904,126.075,74.698"/>
	<polygon fill="#FFEB94" points="116.483,108.7 123.763,108.7 127.145,88.169 112.582,88.169 	"/>
</g>
</svg>
