<?xml version="1.0" encoding="utf-8"?>
<!-- Generator: Adobe Illustrator 22.0.0, SVG Export Plug-In . SVG Version: 6.00 Build 0)  -->
<svg version="1.1" id="Layer_1" xmlns="http://www.w3.org/2000/svg" xmlns:xlink="http://www.w3.org/1999/xlink" x="0px" y="0px"
	 viewBox="0 0 24.8 156.7" style="enable-background:new 0 0 24.8 156.7;" xml:space="preserve">
<style type="text/css">
	.st0{fill:#1A3966;}
	.st1{fill:none;stroke:#FFFFFF;stroke-width:0.5;stroke-miterlimit:10;}
	.st2{fill:#FFFFFF;}
</style>
<path class="st0" d="M13.5,0C6.1,0,0,5.9,0,13.1v29.2v61v29.2c0,13.3,11.1,24.1,24.8,24.1v-29.2V29.2V0H13.5z"/>
<g>
	<line class="st1" x1="5.4" y1="89.1" x2="19.3" y2="89.1"/>
	<line class="st1" x1="5.4" y1="30.2" x2="19.3" y2="30.2"/>
	<line class="st1" x1="5.4" y1="59.7" x2="19.3" y2="59.7"/>
	<g>
		<path class="st2" d="M15.4,38.7c0.1,0,0.2,0,0.3,0c0.2,0.1,0.3,0.3,0.2,0.6c0,0.2,0,0.4,0,0.6c0.6,0,1.1,0,1.6,0
			c0.7,0,1.1,0.4,1.1,1.1c0,3,0,6.1,0,9.1c0,0.7-0.4,1.1-1.1,1.1c-3.4,0-6.9,0-10.3,0c-0.1,0-0.2,0-0.3,0c-0.4-0.1-0.6-0.4-0.8-0.8
			c0-3.2,0-6.4,0-9.7c0-0.1,0.1-0.2,0.1-0.3c0.2-0.4,0.5-0.6,0.9-0.6c0.6,0,1.1,0,1.7,0c0-0.2,0-0.4,0-0.6c0-0.2,0-0.4,0.2-0.6
			c0.1,0,0.2,0,0.3,0c0.2,0.1,0.3,0.3,0.2,0.6c0,0.2,0,0.4,0,0.6c0.8,0,1.6,0,2.4,0c0-0.2,0-0.4,0-0.6c0-0.2,0-0.4,0.2-0.6
			c0.1,0,0.2,0,0.3,0c0.2,0.1,0.3,0.3,0.2,0.6c0,0.2,0,0.4,0,0.6c0.8,0,1.6,0,2.4,0c0-0.2,0-0.4,0-0.6C15.1,39,15.2,38.8,15.4,38.7z
			 M9.7,40.7L9.7,40.7c0,0.3,0,0.5,0,0.7c0,0.3-0.1,0.4-0.4,0.4c-0.2,0-0.4-0.2-0.4-0.5c0-0.2,0-0.5,0-0.7c-0.5,0-1,0-1.5,0
			c-0.4,0-0.5,0.1-0.5,0.5c0,3,0,5.9,0,8.9c0,0.4,0.1,0.5,0.4,0.5c3.3,0,6.7,0,10,0c0.4,0,0.5-0.1,0.5-0.5c0-2.9,0-5.9,0-8.8
			c0-0.1,0-0.1,0-0.2c0-0.2-0.1-0.3-0.3-0.3c-0.6,0-1.1,0-1.7,0c0,0.3,0,0.5,0,0.7c0,0.3-0.1,0.4-0.4,0.4c-0.2,0-0.4-0.2-0.4-0.5
			c0-0.2,0-0.5,0-0.7c-0.8,0-1.6,0-2.4,0c0,0.2,0,0.5,0,0.7c0,0.3-0.2,0.5-0.4,0.5s-0.4-0.2-0.4-0.5c0-0.2,0-0.5,0-0.7
			C11.2,40.7,10.4,40.7,9.7,40.7z"/>
		<path class="st2" d="M10.4,44.5c-0.5,0-1,0-1.5,0c0-0.4,0-0.7,0-1.1c0.5,0,1,0,1.5,0C10.4,43.8,10.4,44.1,10.4,44.5z"/>
		<path class="st2" d="M11.6,44.5c0-0.4,0-0.8,0-1.1c0.5,0,1,0,1.5,0c0,0.4,0,0.7,0,1.1C12.6,44.5,12.1,44.5,11.6,44.5z"/>
		<path class="st2" d="M15.9,44.5c-0.5,0-1,0-1.5,0c0-0.4,0-0.7,0-1.1c0.5,0,1,0,1.5,0C15.9,43.8,15.9,44.1,15.9,44.5z"/>
		<path class="st2" d="M8.9,45.3c0.5,0,1,0,1.5,0c0,0.4,0,0.7,0,1.1c-0.5,0-1,0-1.5,0C8.9,46.1,8.9,45.7,8.9,45.3z"/>
		<path class="st2" d="M11.6,46.5c0-0.4,0-0.7,0-1.1c0.5,0,1,0,1.5,0c0,0.4,0,0.7,0,1.1C12.6,46.5,12.1,46.5,11.6,46.5z"/>
		<path class="st2" d="M15.9,45.3c0,0.4,0,0.8,0,1.1c-0.5,0-1,0-1.5,0c0-0.4,0-0.7,0-1.1C14.9,45.3,15.4,45.3,15.9,45.3z"/>
		<path class="st2" d="M8.9,48.4c0-0.4,0-0.8,0-1.1c0.5,0,1,0,1.5,0c0,0.4,0,0.7,0,1.1C9.9,48.4,9.4,48.4,8.9,48.4z"/>
		<path class="st2" d="M13.2,47.3c0,0.4,0,0.7,0,1.1c-0.5,0-1,0-1.5,0c0-0.4,0-0.7,0-1.1C12.1,47.3,12.6,47.3,13.2,47.3z"/>
		<path class="st2" d="M14.4,47.3c0.5,0,1,0,1.5,0c0,0.4,0,0.7,0,1.1c-0.5,0-1,0-1.5,0C14.4,48.1,14.4,47.7,14.4,47.3z"/>
	</g>
	<g>
		<path class="st2" d="M4.9,9v10.5h12.5V9H4.9z M8.1,10.9c0.6,0,1.2,0.5,1.2,1.2c0,0.6-0.5,1.2-1.2,1.2S7,12.7,7,12
			C7,11.4,7.5,10.9,8.1,10.9z M16.2,18.2H6.4l3.6-3.7l2.1,1.6l2.2-2.5l1.9,2.3V18.2z"/>
		<g>
			<polygon class="st2" points="18.7,20.8 6.3,20.8 6.3,20.1 18,20.1 18,10.4 18.7,10.4 			"/>
		</g>
		<g>
			<polygon class="st2" points="19.9,22 7.6,22 7.6,21.4 19.3,21.4 19.3,11.7 19.9,11.7 			"/>
		</g>
	</g>
	<line class="st1" x1="5.4" y1="119.1" x2="19.3" y2="119.1"/>
	<line class="st1" x1="5.4" y1="60.2" x2="19.3" y2="60.2"/>
	<line class="st1" x1="5.4" y1="89.7" x2="19.3" y2="89.7"/>
	<path class="st2" d="M5.2,99.8v9.6h6.1l4.8,3.1l-1.1-3.2h4.6v-9.6L5.2,99.8L5.2,99.8z M14.4,104.5c0-0.6,0.5-1,1-1c0.6,0,1,0.5,1,1
		s-0.5,1-1,1C14.9,105.6,14.4,105.1,14.4,104.5z M11.4,104.5c0-0.6,0.5-1,1-1s1,0.5,1,1s-0.5,1-1,1S11.4,105.1,11.4,104.5z
		 M8.3,104.5c0-0.6,0.5-1,1-1c0.6,0,1,0.5,1,1s-0.5,1-1,1C8.8,105.6,8.3,105.1,8.3,104.5z"/>
	<g>
		<path class="st2" d="M13.2,142.7L13.2,142.7C13.2,142.6,13.3,142.6,13.2,142.7c0.2-0.1,0.2-0.3,0.2-0.4c0-0.1-0.2-0.2-0.3-0.2
			c-0.4,0-0.8,0-1.2,0c-0.2,0-0.3,0.2-0.3,0.3c0,0.2,0.1,0.3,0.2,0.3l0,0C12.2,142.7,12.7,142.7,13.2,142.7z"/>
		<path class="st2" d="M12.6,126c0.2,0.1,0.3,0.2,0.3,0.5c0,1,0,1.9,0,2.9c0,0.2-0.1,0.4-0.3,0.4s-0.4-0.1-0.4-0.3
			c0-0.1,0-0.2,0-0.3c0-0.9,0-1.8,0-2.7C12.2,126.3,12.3,126.1,12.6,126C12.5,126,12.5,126,12.6,126z"/>
		<path class="st2" d="M4.6,134.1c0.1-0.2,0.2-0.3,0.4-0.3c1,0,1.9,0,2.9,0c0.1,0,0.1,0,0.2,0c0.2,0,0.3,0.2,0.2,0.4
			c0,0.2-0.2,0.3-0.3,0.3c-0.5,0-1.1,0-1.6,0c-0.4,0-0.9,0-1.3,0c-0.2,0-0.4-0.1-0.5-0.3C4.6,134.2,4.6,134.1,4.6,134.1z"/>
		<path class="st2" d="M20.4,134.3c-0.1,0.2-0.2,0.3-0.4,0.3c-1,0-1.9,0-2.9,0c-0.3,0-0.4-0.2-0.3-0.5c0-0.1,0.1-0.2,0.3-0.2h0.1
			c0.9,0,1.9,0,2.8,0c0.2,0,0.4,0.1,0.4,0.2C20.4,134.1,20.4,134.2,20.4,134.3z"/>
		<path class="st2" d="M12.6,130.2c1.2,0,2.3,0.7,3,1.8c0.4,0.6,0.6,1.3,0.6,2c0,0.8-0.3,1.6-0.8,2.2c-0.1,0.1-0.2,0.3-0.4,0.4
			c-0.4,0.4-0.6,0.9-0.7,1.4c0,0.2,0,0.3,0,0.5v0.1c0,0.2-0.1,0.3-0.3,0.3s-0.3-0.1-0.4-0.3c-0.1-0.6,0-1.1,0.3-1.7
			c0.2-0.4,0.4-0.7,0.6-0.9c0.4-0.5,0.7-1,0.8-1.6c0.1-0.7,0-1.4-0.3-2c-0.5-0.8-1.1-1.4-2.1-1.6c-1.2-0.2-2.1,0.1-2.9,1
			c-0.5,0.6-0.8,1.3-0.8,2c0,0.6,0.2,1.2,0.5,1.7c0.1,0.2,0.3,0.3,0.4,0.5c0.4,0.5,0.8,1.1,0.9,1.7c0,0.3,0.1,0.6,0,0.8
			c0,0.2-0.2,0.3-0.4,0.3s-0.3-0.2-0.3-0.4c0.1-0.8-0.2-1.4-0.7-2c-0.3-0.4-0.6-0.8-0.8-1.2c-0.4-1-0.4-2,0.1-3
			c0.5-1.1,1.4-1.8,2.5-2.2C11.9,130.2,12.2,130.2,12.6,130.2z"/>
		<path class="st2" d="M12.5,140c-0.5,0-1,0-1.5,0c-0.2,0-0.3-0.1-0.3-0.2c-0.1-0.1,0-0.3,0.1-0.4c0.1,0,0.2-0.1,0.2-0.1
			c1,0,2,0,3,0c0.2,0,0.4,0.2,0.4,0.3c0,0.2-0.2,0.3-0.4,0.3C13.5,140,13,140,12.5,140z"/>
		<path class="st2" d="M12.5,141.1c0.5,0,1,0,1.5,0c0.2,0,0.3,0.1,0.3,0.3s-0.1,0.3-0.2,0.4c0,0-0.1,0-0.2,0c-1,0-1.9,0-2.9,0
			c-0.2,0-0.3-0.1-0.4-0.3c0-0.2,0.1-0.4,0.3-0.4C11.5,141.1,12,141.1,12.5,141.1z"/>
		<path class="st2" d="M7,139.7c-0.1,0-0.3-0.1-0.3-0.2c-0.1-0.1,0-0.3,0.1-0.4c0.2-0.3,0.5-0.5,0.8-0.8c0.5-0.5,0.9-0.9,1.4-1.4
			c0.1-0.1,0.3-0.2,0.5-0.1c0.2,0.1,0.2,0.4,0.1,0.5c-0.3,0.3-0.6,0.6-0.8,0.8c-0.4,0.4-0.8,0.8-1.3,1.3
			C7.2,139.6,7.1,139.7,7,139.7z"/>
		<path class="st2" d="M15.8,130.9c-0.1,0-0.3-0.1-0.3-0.2c-0.1-0.1,0-0.3,0.1-0.4c0.1-0.1,0.3-0.3,0.4-0.4c0.6-0.6,1.1-1.1,1.7-1.7
			c0.1-0.1,0.2-0.1,0.4-0.1c0.1,0,0.2,0.1,0.2,0.3c0,0.1,0,0.2-0.1,0.3c-0.6,0.6-1.2,1.2-1.8,1.8c-0.1,0.1-0.2,0.2-0.3,0.3
			C16,130.9,15.9,130.9,15.8,130.9z"/>
		<path class="st2" d="M7,128.1c0.1,0,0.2,0,0.2,0.1c0.7,0.7,1.4,1.4,2.1,2.1c0.1,0.1,0.1,0.4,0,0.5c-0.1,0.1-0.4,0.1-0.5,0
			c-0.7-0.7-1.4-1.4-2.1-2.1c-0.1-0.1-0.1-0.2-0.1-0.4C6.8,128.2,6.9,128.1,7,128.1z"/>
		<path class="st2" d="M18.3,139.4c0,0.1-0.1,0.2-0.2,0.3c-0.1,0.1-0.3,0-0.4-0.1c-0.2-0.2-0.3-0.3-0.5-0.5
			c-0.5-0.5-1.1-1.1-1.6-1.6c-0.1-0.1-0.2-0.2-0.1-0.4c0.1-0.2,0.4-0.3,0.6-0.1c0.3,0.3,0.6,0.6,0.8,0.8c0.4,0.4,0.8,0.9,1.3,1.3
			C18.2,139.1,18.3,139.2,18.3,139.4z"/>
		<path class="st2" d="M12.5,140.2c0.5,0,1,0,1.5,0c0.2,0,0.3,0.1,0.3,0.3c0,0.2-0.1,0.3-0.3,0.4h-0.1c-1,0-2,0-3,0
			c-0.2,0-0.3-0.1-0.4-0.3c0-0.2,0.1-0.3,0.2-0.4h0.1C11.5,140.2,12,140.2,12.5,140.2z"/>
	</g>
	<g>
		<path class="st2" d="M11.7,66.4c4.8,0,8.6,3.9,8.6,8.7c0,4.7-3.9,8.6-8.6,8.6c-4.8,0-8.6-3.9-8.6-8.6C3.1,70.3,6.9,66.4,11.7,66.4
			z M9.5,80.6C9.5,80.7,9.5,80.7,9.5,80.6c0.6-0.2,1-0.5,1.6-0.7c0.3-0.1,0.7-0.2,1-0.2c1,0,2.1,0,3.1,0c0.9,0,1.3-0.4,1.3-1.3
			c0-2.2,0-4.5,0-6.7c0-0.9-0.4-1.3-1.3-1.3c-2.2,0-4.5,0-6.7,0c-0.8,0-1.3,0.4-1.3,1.3c0,2.2,0,4.5,0,6.7c0,0.9,0.4,1.3,1.3,1.3
			c0.5,0,0.9,0,1.5,0C9.8,80,9.6,80.3,9.5,80.6z"/>
		<path class="st2" d="M8.8,73.2c0-0.3,0-0.5,0-0.8c2,0,4,0,6,0c0,0.3,0,0.5,0,0.8C12.8,73.2,10.8,73.2,8.8,73.2z"/>
		<path class="st2" d="M14.8,75.3c-2,0-4,0-6,0c0-0.3,0-0.5,0-0.8c2,0,4,0,6,0C14.8,74.8,14.8,75,14.8,75.3z"/>
		<path class="st2" d="M8.8,77.4c0-0.3,0-0.5,0-0.8c2,0,4,0,6,0c0,0.3,0,0.5,0,0.8C12.8,77.4,10.8,77.4,8.8,77.4z"/>
	</g>
</g>
</svg>
