<?xml version="1.0" encoding="utf-8"?>
<!-- Generator: Adobe Illustrator 16.0.0, SVG Export Plug-In . SVG Version: 6.00 Build 0)  -->
<!DOCTYPE svg PUBLIC "-//W3C//DTD SVG 1.1//EN" "http://www.w3.org/Graphics/SVG/1.1/DTD/svg11.dtd">
<svg version="1.1" id="Layer_1" xmlns="http://www.w3.org/2000/svg" xmlns:xlink="http://www.w3.org/1999/xlink" x="0px" y="0px"
	 width="23.887px" height="23.506px" viewBox="0 0 23.887 23.506" enable-background="new 0 0 23.887 23.506" xml:space="preserve">
<g>
	<path fill="#FFFFFF" d="M21.296,23.022l-0.674-4.462c-0.062-0.407-0.343-0.748-0.732-0.885l-5.297-1.867
		c-0.366-0.129-0.639-0.438-0.721-0.817l-0.189-0.873c0.75-0.827,1.342-1.904,1.69-2.991c0.497-0.023,0.708-1.022,0.789-1.62
		c0.103-0.752,0.23-1.688-0.386-1.789c-0.063-0.011-0.123-0.01-0.19,0.003V4.667l1.409-0.586v1.741
		c-0.143,0.045-0.248,0.173-0.248,0.33s0.105,0.285,0.248,0.329v0.143c-0.143,0.045-0.248,0.173-0.248,0.33v1.068h0.004l0.347-0.6
		l0.346,0.6h0.004V6.953c0-0.157-0.105-0.285-0.248-0.33V6.48c0.143-0.044,0.248-0.172,0.248-0.329s-0.105-0.285-0.248-0.33V3.996
		l0.892-0.371c0.236-0.098,0.236-0.431,0.001-0.53l-6.883-2.895c-0.254-0.107-0.541-0.107-0.795,0L3.532,3.095
		c-0.235,0.099-0.234,0.432,0.001,0.53l2.506,1.042V7.72c-0.061-0.012-0.123-0.014-0.19-0.002C5.232,7.819,5.36,8.755,5.462,9.507
		c0.08,0.581,0.28,1.542,0.748,1.616c0.353,1.103,0.958,2.195,1.724,3.029l-0.182,0.839c-0.083,0.38-0.355,0.688-0.721,0.817
		l-5.297,1.867c-0.388,0.137-0.67,0.478-0.731,0.885l-0.674,4.462c-0.039,0.254,0.158,0.483,0.416,0.483h10.05h0.034H20.88
		C21.137,23.506,21.334,23.276,21.296,23.022z M6.548,10.844l-0.087-0.208l-0.192,0.083c-0.087-0.056-0.29-0.425-0.404-1.267
		C5.812,9.064,5.687,8.155,5.916,8.117C5.951,8.111,5.983,8.105,6.04,8.162l0.26,0.259L6.38,8.063
		c0.004-0.021,0.011-0.041,0.016-0.061c0.713-0.438,2.42-0.748,4.416-0.748c1.954,0,3.631,0.297,4.37,0.721
		c0.009,0.04,0.022,0.078,0.031,0.117L15.3,8.496l0.266-0.315c0.064-0.077,0.102-0.07,0.143-0.063
		c0.228,0.038,0.104,0.947,0.051,1.335c-0.12,0.876-0.334,1.24-0.395,1.271l-0.236-0.193l-0.086,0.293
		c-0.643,2.181-2.308,4.39-4.25,4.39C8.859,15.212,7.194,13.014,6.548,10.844z M10.812,22.757c-0.215,0-0.388-0.173-0.388-0.388
		s0.173-0.389,0.388-0.389s0.388,0.174,0.388,0.389S11.027,22.757,10.812,22.757z M10.812,21.451c-0.215,0-0.388-0.175-0.388-0.389
		c0-0.215,0.173-0.389,0.388-0.389s0.388,0.174,0.388,0.389C11.2,21.276,11.027,21.451,10.812,21.451z M10.812,20.145
		c-0.215,0-0.388-0.174-0.388-0.389c0-0.214,0.173-0.389,0.388-0.389s0.388,0.175,0.388,0.389
		C11.2,19.971,11.027,20.145,10.812,20.145z M13.099,15.626l-1.945,2.277c-0.18,0.21-0.504,0.21-0.684,0l-1.944-2.277
		C8.41,15.49,8.37,15.307,8.419,15.137l0.12-0.413c0.675,0.549,1.44,0.893,2.253,0.893c0.827,0,1.603-0.354,2.285-0.918l0.127,0.438
		C13.254,15.307,13.214,15.49,13.099,15.626z"/>
</g>
</svg>
